<?xml version="1.0" standalone="no"?>
<!DOCTYPE svg PUBLIC "-//W3C//DTD SVG 1.1//EN" "http://www.w3.org/Graphics/SVG/1.1/DTD/svg11.dtd" >
<!--
2021-10-14: Created with FontForge (http://fontforge.org)
-->
<svg xmlns="http://www.w3.org/2000/svg" xmlns:xlink="http://www.w3.org/1999/xlink" version="1.1">
<metadata>
Created by FontForge 20170731 at Thu Oct 14 09:44:19 2021
 By Lionel,,,
orioniconlibrary.com
</metadata>
<defs>
<font id="orion-font" horiz-adv-x="496" >
  <font-face 
    font-family="orion-font"
    font-weight="400"
    font-stretch="normal"
    units-per-em="512"
    panose-1="2 0 5 3 0 0 0 0 0 0"
    ascent="448"
    descent="-64"
    bbox="-0.529916 -56.3773 496.382 440.25"
    underline-thickness="25.6"
    underline-position="-51.2"
    unicode-range="U+0020-FB9A"
  />
    <missing-glyph />
    <glyph glyph-name="evernote-1" unicode="&#x680;" horiz-adv-x="419" arabic-form="final" 
d="M141 437c17 4 60 2 77 -3c14 -5 27 -15 32 -26l2 -6h18c40 0 94 -8 113 -17c15 -7 22 -19 26 -39c9 -51 13 -183 8 -229c-6 -51 -18 -99 -31 -127c-18 -39 -36 -47 -100 -45c-53 2 -69 8 -81 34c-4 9 -4 13 -4 35c0 30 3 42 15 54c11 11 23 14 51 14c27 0 28 0 26 -15
c-1 -5 -2 -14 -2 -19c0 -6 0 -10 -2 -11c-1 -1 -8 -3 -15 -4c-15 -1 -18 -4 -17 -13c1 -4 3 -7 6 -8c7 -2 40 -3 49 0c10 3 12 11 11 37c-1 23 -6 37 -14 42c-3 2 -12 4 -22 5c-42 5 -61 11 -69 21c-2 3 -5 5 -5 5l-4 -14c-5 -16 -14 -25 -25 -27c-14 -2 -80 10 -120 22
c-22 7 -30 14 -37 35c-16 45 -32 144 -26 165c10 35 105 126 140 134zM150 423c-11 -2 -18 -5 -24 -11l-5 -6l-1 -35c-1 -38 -3 -41 -15 -49c-6 -3 -10 -4 -37 -4c-35 0 -42 -2 -49 -14c-3 -6 -4 -10 -3 -27c2 -37 19 -119 29 -140c5 -11 9 -14 28 -20s50 -13 79 -17
c28 -4 28 -4 33 0c7 6 17 38 17 60c0 12 2 18 8 18c7 0 9 -3 10 -20c2 -20 7 -31 18 -36c5 -2 18 -5 30 -7s26 -4 32 -5c21 -3 33 -17 38 -43c3 -20 1 -48 -4 -57c-7 -13 -13 -15 -45 -15s-40 3 -45 12c-4 8 -4 25 0 31s11 9 23 11c8 1 8 1 8 9v8h-14c-19 0 -28 -3 -35 -11
c-12 -13 -14 -55 -4 -73c9 -17 33 -23 84 -21c32 1 41 3 51 13c25 24 47 117 47 203c0 55 -8 156 -13 175c-2 8 -12 19 -22 22c-17 5 -56 10 -90 11c-20 1 -38 2 -39 3s-2 5 -3 8c-2 10 -12 19 -24 23c-10 3 -53 6 -63 4zM71 366l-32 -32h28c37 0 35 -1 36 26v29v8zM298 236
c9 6 25 6 34 0c10 -6 14 -14 16 -26c3 -18 0 -22 -17 -17c-5 2 -17 3 -27 3c-21 0 -24 2 -22 15c2 11 8 20 16 25zM304 220c-2 -2 -4 -5 -4 -6c0 -2 29 -4 31 -3c0 0 -1 4 -3 7c-5 7 -18 8 -24 2z" />
    <glyph glyph-name="twitter-1" unicode="&#x6a9;" horiz-adv-x="474" arabic-form="isolated" 
d="M314 386c28 3 51 -3 75 -19l14 -10l13 4c7 2 17 5 23 8c13 6 16 6 21 2c6 -6 4 -18 -8 -33c-5 -7 -5 -7 5 -4c9 3 17 -1 17 -11c0 -6 -3 -9 -21 -27c-17 -17 -20 -22 -19 -26c1 -7 -1 -46 -5 -63c-11 -54 -38 -102 -78 -142c-34 -34 -67 -54 -111 -69
c-31 -10 -55 -14 -91 -14c-48 0 -94 11 -131 29c-17 8 -21 14 -16 22c3 4 6 5 24 6c29 2 65 13 81 26c4 3 4 3 -1 4c-15 4 -37 18 -49 31c-24 25 -27 45 -10 48c3 1 2 2 -4 6c-10 6 -25 23 -32 35c-10 19 -14 44 -8 51c4 4 13 5 19 2c3 -1 2 1 -4 10c-14 22 -17 32 -17 60
c0 21 0 26 4 36c4 11 10 18 16 18c1 0 12 -10 24 -21s28 -25 36 -30c38 -25 85 -41 132 -47l6 -1l1 17c1 10 4 23 6 30c13 39 48 68 88 72zM314 370c-16 -2 -36 -11 -48 -22c-22 -20 -33 -48 -30 -78c2 -20 1 -21 -19 -19c-49 5 -104 23 -142 49c-17 11 -37 29 -46 38l-7 8
l-3 -5c-1 -3 -2 -15 -2 -29c0 -21 0 -24 6 -36c3 -7 10 -18 16 -25c12 -14 13 -21 5 -26c-5 -3 -6 -3 -16 -1c-6 1 -12 1 -12 1s2 -6 4 -13c7 -23 22 -41 44 -51c14 -7 18 -11 18 -16c0 -8 -5 -12 -17 -13c-6 -1 -11 -1 -11 -2s3 -5 7 -10c13 -18 34 -31 55 -36
c22 -5 23 -16 4 -30c-23 -16 -61 -30 -82 -30c-10 0 -6 -3 14 -10c31 -11 50 -14 87 -15c27 -1 39 -1 55 2c55 9 106 35 146 75c50 50 78 116 78 185v24l8 7c5 4 13 10 17 14l8 8l-12 -1c-11 -1 -11 -1 -14 4c-4 7 -3 10 9 24c5 5 7 10 7 10s-5 -1 -12 -3s-17 -4 -23 -5
c-10 -1 -11 -1 -19 6c-20 16 -46 24 -73 21z" />
    <glyph glyph-name="myspace-1" unicode="&#x683;" arabic-form="isolated" 
d="M380 298c23 7 51 3 71 -10c42 -29 48 -89 12 -125c-48 -48 -128 -21 -139 46c-6 38 18 77 56 89zM383 282c-32 -11 -50 -44 -42 -76c5 -21 17 -37 37 -46c16 -8 38 -8 54 0c13 6 26 19 32 32c7 14 8 38 2 53c-5 14 -19 28 -33 35c-14 6 -36 7 -50 2zM208 269
c16 6 30 6 46 1c31 -10 52 -38 52 -70c0 -7 0 -16 -1 -19c-2 -10 -11 -25 -19 -34s-29 -21 -36 -21c-6 0 -4 -4 2 -5c18 -4 41 -21 51 -39c3 -6 7 -17 9 -25l4 -14v9c1 29 22 61 51 75c13 6 17 8 33 9c14 1 21 0 32 -4c18 -6 33 -16 44 -31c15 -19 19 -31 20 -63
c1 -25 0 -27 -4 -32l-4 -6h-82c-79 0 -82 0 -86 4c-2 2 -4 5 -4 7s-2 1 -5 -3l-4 -7l-74 -1h-75l-5 6c-3 4 -5 5 -5 3s-2 -4 -4 -6c-4 -3 -15 -3 -70 -3h-64l-5 5c-5 5 -5 6 -5 24c0 40 18 68 50 80l10 3l-11 5c-14 6 -24 14 -31 25c-23 35 -11 79 26 99c9 5 13 6 30 6
s20 -1 30 -6c23 -11 38 -34 38 -61c0 -30 -18 -55 -46 -65c-5 -2 -8 -3 -6 -3s8 -3 15 -6c21 -10 36 -28 42 -50l2 -11l3 11c4 17 11 31 23 43c11 11 32 23 41 23c3 0 4 1 3 2s-3 2 -5 2c-7 0 -24 10 -34 19c-41 38 -25 106 28 124zM214 255c-20 -6 -34 -21 -39 -42
c-7 -27 6 -53 32 -67c12 -6 38 -7 50 -1c13 7 21 14 27 27c15 30 2 68 -28 81c-12 5 -31 6 -42 2zM54 228c-11 -5 -21 -14 -27 -25s-6 -35 0 -46c17 -32 60 -38 85 -13c21 21 19 58 -4 76c-16 12 -37 16 -54 8zM380 115c-15 -6 -23 -11 -32 -23c-12 -16 -16 -28 -16 -54v-22
h74h74v24c-1 28 -6 40 -22 57c-15 16 -29 21 -50 22c-15 1 -19 0 -28 -4zM210 103c-30 -13 -44 -34 -44 -70v-17h66h66v21c-1 18 -2 22 -8 34c-11 23 -30 35 -55 36c-12 1 -16 0 -25 -4zM58 95c-18 -7 -34 -22 -39 -40c-2 -5 -3 -16 -3 -24v-15h59h60l-1 18
c-1 21 -6 32 -18 45c-15 16 -40 23 -58 16z" />
    <glyph glyph-name="yelp-1" unicode="&#x6b3;" horiz-adv-x="406" arabic-form="isolated" 
d="M143 437c9 2 23 2 33 2c21 -1 27 -4 31 -17c4 -12 6 -79 5 -139c-1 -47 -1 -51 -5 -56c-6 -9 -14 -13 -23 -14s-8 -1 -24 15c-26 27 -97 122 -108 147c-5 10 -4 11 -1 18c7 16 50 36 92 44zM141 420c-28 -6 -64 -21 -72 -30c-5 -5 -3 -9 17 -39c36 -53 89 -122 96 -123
c2 0 6 2 9 5l5 5v47c0 94 -1 133 -5 137c-3 3 -34 1 -50 -2zM312 308c10 10 17 14 20 14c16 0 48 -34 66 -72c14 -28 11 -38 -15 -50c-20 -10 -74 -23 -106 -27c-22 -2 -38 7 -38 24c0 21 36 76 73 111zM317 290c-27 -28 -55 -69 -60 -87c-3 -9 -3 -9 1 -12c6 -4 13 -4 47 3
c48 10 81 21 84 29c4 11 -34 69 -51 79l-6 4zM22 228c7 3 8 4 25 0c13 -3 72 -28 88 -36c8 -4 18 -11 23 -16c8 -8 10 -11 10 -18c0 -11 -8 -20 -23 -27c-16 -8 -109 -37 -116 -37c-10 0 -18 6 -23 17c-4 8 -5 13 -6 36c-1 44 7 74 22 81zM24 207c-6 -13 -9 -36 -8 -62
c1 -20 1 -23 5 -28c2 -3 6 -7 8 -7c5 -1 107 34 115 39c10 7 9 11 -1 19c-5 3 -14 9 -20 12c-14 7 -55 24 -73 30c-23 7 -22 6 -26 -3zM251 137c8 4 31 3 54 -4c17 -5 71 -25 86 -32c20 -9 17 -35 -9 -70c-14 -19 -23 -28 -37 -37c-13 -9 -22 -10 -32 -4
c-7 4 -63 90 -69 106c-7 18 -5 34 7 41zM258 122c-3 -3 -2 -14 2 -23s54 -87 59 -93c5 -5 9 -4 20 4c22 16 49 54 49 68c0 7 -2 8 -17 14c-7 3 -22 8 -35 13c-40 16 -72 23 -78 17zM183 110c9 6 23 5 30 -1c12 -10 13 -16 13 -85c0 -60 1 -62 -3 -67c-11 -15 -30 -16 -66 -4
c-41 14 -67 31 -67 45c0 8 11 22 40 56c36 41 46 52 53 56zM187 94c-3 -2 -14 -15 -24 -27s-26 -30 -34 -39s-18 -20 -20 -24l-4 -7l7 -5c14 -12 57 -29 79 -31c21 -2 19 -5 19 65c0 50 0 61 -3 66c-4 7 -12 8 -20 2z" />
    <glyph glyph-name="renren-1" unicode="&#x68d;" horiz-adv-x="495" arabic-form="final" 
d="M191 437c27 6 25 12 25 -83c0 -44 -1 -89 -2 -101c-9 -92 -59 -174 -134 -216c-7 -4 -14 -7 -16 -7c-8 0 -34 39 -45 67c-44 107 -10 230 82 298c26 19 60 35 90 42zM283 437c4 4 11 3 37 -4c39 -11 71 -32 102 -63c38 -38 58 -76 69 -128c5 -21 5 -74 1 -95
c-4 -22 -13 -48 -24 -69s-28 -45 -33 -47c-7 -3 -38 16 -61 36c-45 40 -77 97 -89 161c-3 14 -3 35 -4 111c-1 87 -1 95 2 98zM175 416c-91 -30 -153 -113 -158 -211c-2 -37 3 -70 17 -103c7 -16 19 -38 27 -48l6 -6l12 7c48 29 86 79 106 138c12 37 13 44 14 141
c1 84 2 88 -2 88c-2 0 -12 -3 -22 -6zM296 334c1 -81 2 -91 6 -109c14 -66 48 -120 97 -157c9 -7 19 -14 23 -16l8 -4l5 7c59 78 60 192 1 275c-21 30 -57 60 -91 76c-14 6 -42 16 -48 16c-1 0 -2 -38 -1 -88zM240 137c1 2 4 3 7 3c5 -1 6 -3 13 -22c13 -37 28 -60 59 -91
c12 -12 28 -26 35 -31c13 -9 18 -14 15 -18c-4 -6 -46 -23 -73 -29c-21 -4 -74 -5 -93 -1c-31 7 -74 23 -78 30c-3 4 2 9 19 22c43 31 79 79 91 122c2 6 4 13 5 15zM240 90c-14 -31 -49 -75 -80 -98l-12 -10l9 -4c56 -24 125 -24 176 -1l12 5l-8 7c-38 30 -68 66 -84 101
l-6 14l-7 -14z" />
    <glyph glyph-name="vk-1" unicode="&#x6a9;" horiz-adv-x="495" arabic-form="medial" 
d="M216 326c54 2 72 -3 78 -20c2 -5 3 -22 3 -58c0 -60 0 -62 13 -48c17 19 28 39 58 102c1 3 6 7 10 9c6 3 12 4 55 3c46 -1 49 -1 54 -5c8 -6 10 -12 6 -25c-5 -16 -19 -39 -45 -74c-13 -17 -24 -34 -26 -37c-7 -12 -6 -15 18 -38c39 -38 57 -65 55 -80
c-1 -4 -3 -9 -5 -11c-8 -9 -14 -10 -59 -10c-59 0 -58 0 -94 37c-15 16 -28 27 -30 27c-5 -2 -9 -15 -11 -33c-2 -17 -2 -19 -9 -25l-8 -6h-33c-31 1 -35 1 -51 7c-28 10 -47 23 -71 47c-33 33 -64 79 -98 147c-29 58 -30 63 -20 73l5 6h44c55 0 53 1 69 -34
c18 -41 49 -88 57 -88c5 0 7 16 6 50c-1 38 -2 41 -17 48c-13 6 -14 12 -5 22s19 13 51 14zM216 310c-15 -1 -29 -2 -32 -3c-5 -2 -4 -3 3 -7c5 -3 8 -7 11 -13c4 -8 4 -14 5 -45c1 -28 1 -38 -2 -47c-4 -13 -11 -19 -21 -19c-6 0 -8 2 -19 13c-14 14 -37 51 -51 82
c-5 11 -10 21 -12 23c-3 3 -8 4 -43 4c-27 0 -39 -1 -39 -2c0 -3 19 -44 35 -74c47 -90 89 -139 135 -160c20 -9 36 -12 64 -12c29 0 28 -1 30 20c2 25 11 40 25 43c9 2 22 -6 41 -28c18 -21 27 -29 38 -33c8 -3 87 -3 92 0c10 5 -3 27 -41 64c-30 29 -33 34 -33 46
c0 10 4 19 39 66c19 26 35 51 37 62c1 5 1 6 -5 7c-9 2 -86 1 -89 -1c-1 -1 -4 -6 -6 -12c-13 -34 -41 -78 -59 -96c-14 -14 -21 -15 -30 -6s-10 15 -9 68c1 46 0 50 -3 54c-6 6 -23 8 -61 6z" />
    <glyph glyph-name="grooveshark-1" unicode="&#x679;" arabic-form="initial" 
d="M214 438c6 1 20 2 32 2c67 1 130 -25 178 -74c48 -48 72 -106 72 -173c0 -87 -41 -161 -114 -209c-34 -22 -71 -34 -115 -38c-101 -9 -193 42 -241 135c-27 52 -34 123 -17 181c7 23 24 58 38 77c39 53 101 89 167 99zM209 421c-41 -7 -70 -21 -105 -47
c-97 -73 -117 -216 -45 -318c21 -30 57 -59 91 -75c72 -33 160 -26 227 19c55 37 90 92 100 156c4 29 3 69 -4 95c-22 87 -100 157 -189 170c-24 4 -54 4 -75 0zM206 386c23 5 70 4 92 -2c91 -25 156 -118 146 -208c-5 -42 -27 -56 -63 -39c-15 7 -36 27 -52 50
c-26 37 -63 77 -93 100c-18 14 -50 30 -61 32l-6 1l1 -14c3 -21 1 -68 -3 -83c-6 -21 -15 -36 -29 -51c-30 -31 -66 -37 -82 -13c-5 7 -5 10 -6 27c-4 95 62 179 156 200zM215 372c-16 -3 -40 -12 -56 -21c-44 -25 -72 -60 -86 -108c-5 -15 -6 -22 -6 -45c0 -26 0 -28 5 -33
c10 -10 31 -5 50 12c22 20 31 45 33 84c1 14 0 35 -1 47c-3 25 -2 29 5 31c6 1 35 -8 53 -17c37 -19 83 -62 121 -113c26 -35 34 -43 45 -51c12 -8 26 -13 34 -11c18 4 22 55 8 98c-10 32 -24 55 -49 79c-27 25 -54 40 -87 47c-14 3 -53 4 -69 1z" />
    <glyph glyph-name="pinterest-1" unicode="&#x687;" horiz-adv-x="495" arabic-form="final" 
d="M211 437c47 7 98 0 142 -21c28 -13 49 -28 70 -49c22 -22 36 -42 49 -70c45 -94 25 -206 -49 -280c-35 -35 -78 -57 -127 -68c-40 -8 -117 -2 -122 10c-1 2 4 13 10 25c8 16 14 31 19 50c13 51 13 51 19 52c4 0 6 -2 11 -8c4 -5 12 -10 20 -14c12 -6 14 -6 30 -6
c32 0 57 12 80 37c21 23 34 54 39 95c5 45 -8 83 -37 112c-45 45 -124 55 -188 23c-32 -16 -52 -36 -68 -66c-10 -19 -14 -38 -14 -60c0 -29 7 -51 22 -67c7 -8 21 -17 23 -14c0 1 3 6 4 12c2 10 2 11 -2 15c-2 2 -7 10 -10 16c-15 32 -4 85 24 116c12 14 34 28 52 34
c20 7 52 9 74 4c39 -9 64 -31 75 -68c5 -16 3 -61 -3 -84c-9 -34 -29 -63 -51 -75c-9 -4 -13 -5 -26 -5c-14 0 -18 1 -26 6c-7 4 -11 9 -15 16c-9 16 -8 29 5 71c8 26 11 45 9 54c-7 29 -43 25 -57 -7c-6 -14 -6 -37 -1 -54l4 -12l-16 -69c-15 -65 -20 -87 -21 -112
c0 -10 -1 -11 -5 -12c-6 -1 -37 16 -57 31c-95 71 -124 202 -70 309c36 71 104 120 184 133zM215 422c-34 -5 -79 -24 -106 -44c-59 -45 -93 -114 -93 -187c0 -72 38 -146 96 -187c15 -10 30 -19 31 -18c0 0 1 9 2 19s9 48 18 85c15 64 16 66 13 75c-9 31 -3 67 16 86
c11 11 19 14 35 14s24 -4 32 -16c11 -16 10 -33 -5 -83c-10 -36 -10 -48 -2 -57c11 -11 27 -14 43 -6c30 14 50 61 48 116c-1 21 -1 25 -6 36c-6 14 -21 30 -35 37c-15 8 -33 10 -56 9c-24 -1 -39 -5 -56 -16c-32 -21 -51 -60 -48 -98c1 -12 8 -30 14 -35c5 -4 6 -14 2 -29
c-6 -23 -14 -27 -32 -18c-46 23 -62 101 -32 160c18 36 43 60 80 77c76 35 166 18 213 -40c25 -31 36 -69 31 -113c-6 -58 -30 -102 -68 -127c-37 -25 -82 -28 -113 -8l-10 6s-4 -14 -8 -29c-4 -16 -11 -36 -16 -46l-9 -19l11 -2c44 -9 98 -2 142 19c24 11 40 23 60 42
c21 20 34 37 46 61c34 65 36 140 4 206c-39 82 -122 133 -212 132c-10 0 -23 -1 -30 -2z" />
    <glyph glyph-name="xing-1" unicode="&#x6af;" horiz-adv-x="423" arabic-form="medial" 
d="M324 437c4 2 18 3 47 3h41l5 -6c4 -4 6 -8 6 -11c0 -4 -27 -53 -76 -140c-42 -74 -76 -137 -76 -138s21 -41 47 -88s48 -89 49 -93c1 -8 -2 -15 -9 -18c-3 -1 -20 -2 -44 -2c-53 0 -49 -2 -76 47c-12 21 -35 65 -52 97c-28 54 -31 58 -29 63c4 10 155 276 158 280
c2 2 6 5 9 6zM329 422c-4 -3 -156 -274 -156 -277c0 -1 14 -28 32 -60s39 -72 48 -89s19 -31 21 -33c3 -2 12 -3 41 -3c20 0 36 1 36 2s-22 42 -49 91s-49 91 -49 93s35 64 77 139s77 137 77 138s-16 1 -37 1c-27 0 -39 0 -41 -2zM32 341c4 3 11 3 47 3c42 0 44 0 50 -4
c5 -3 13 -16 28 -43c12 -21 21 -37 19 -36s-2 0 1 -5c2 -3 5 -6 7 -7c5 -1 6 -7 3 -12c-1 -2 -19 -35 -41 -73c-48 -84 -39 -77 -97 -76c-37 1 -40 1 -44 5c-2 2 -4 7 -5 11c-1 6 4 15 36 72l37 65l-24 41c-21 37 -24 43 -23 49c1 4 4 8 6 10zM42 326c0 -1 11 -19 24 -41
s23 -42 23 -44s-17 -33 -37 -69s-36 -65 -35 -66s16 -2 36 -2h36l6 6c3 3 21 33 41 68l35 64l-24 41c-13 23 -25 42 -26 43c-3 2 -80 2 -79 0z" />
    <glyph glyph-name="openid-1" unicode="&#x683;" horiz-adv-x="495" arabic-form="initial" 
d="M258 408c21 11 40 20 41 20s4 -2 6 -4c3 -4 3 -14 3 -66v-61l18 -4c33 -6 76 -21 106 -36l9 -5l17 10c18 10 21 11 25 7c1 -2 5 -27 8 -57c5 -49 5 -55 2 -58s-11 -1 -75 13c-39 9 -73 16 -75 17s-3 4 -3 7c0 4 3 6 14 12c8 4 14 8 14 9c0 3 -45 18 -56 18h-4v-109
c0 -60 -1 -110 -2 -113c-1 -4 -11 -9 -41 -23c-44 -20 -40 -20 -81 -12c-106 21 -179 81 -184 151c-1 18 3 37 11 54c27 53 99 97 184 114l23 5v46l1 46zM261 393l-27 -14v-195v-196l12 6c7 3 19 9 28 13l16 7v196c0 108 -1 196 -1 196s-13 -6 -28 -13zM189 275
c-99 -23 -173 -85 -173 -144c0 -66 74 -125 181 -144c23 -4 21 -6 21 11v15l-22 5c-23 6 -47 15 -66 26c-18 10 -41 35 -48 50c-17 36 -11 66 19 96c28 27 56 42 114 57c2 0 3 6 3 17c0 19 2 18 -29 11zM308 264l1 -17l13 -2c18 -3 42 -12 58 -20c11 -6 13 -7 13 -12
s-2 -7 -11 -12c-6 -3 -10 -6 -9 -7s24 -6 52 -12c43 -9 51 -11 52 -8s-5 75 -6 76c0 0 -7 -3 -14 -7s-14 -7 -16 -7s-13 5 -24 10c-32 15 -71 28 -102 33l-8 1zM195 225c-22 -7 -42 -15 -61 -28c-41 -27 -55 -60 -40 -92c11 -23 30 -40 63 -56c15 -7 51 -19 59 -19
c1 0 2 44 2 100c0 94 -1 100 -4 100c-2 0 -10 -2 -19 -5z" />
    <glyph glyph-name="zerply-1" unicode="&#x6b3;" horiz-adv-x="362" arabic-form="initial" 
d="M97 438c6 3 11 2 20 -2c14 -7 39 -13 65 -14c30 -2 78 1 105 5c37 6 41 6 45 2c5 -4 5 -15 2 -41c-2 -16 -3 -18 -10 -25c-4 -4 -48 -56 -98 -114s-96 -111 -101 -117l-10 -11l13 -2c22 -4 35 -10 68 -30c25 -15 55 -30 69 -34c25 -7 64 -4 78 7c7 5 15 5 17 -2
c3 -10 2 -38 -2 -53c-5 -19 -10 -29 -22 -41c-19 -20 -40 -26 -70 -18c-30 7 -61 24 -103 55c-26 19 -49 31 -68 36c-10 3 -56 7 -79 7c-5 0 -9 1 -12 4c-4 4 -4 7 -4 35c0 25 0 31 3 35c2 3 41 49 86 102s83 98 84 100c2 3 -2 3 -34 3c-43 0 -54 3 -67 15c-7 6 -8 8 -9 18
c-1 13 1 28 9 45c6 14 19 32 25 35zM96 413c-10 -14 -16 -30 -17 -45c-1 -10 -1 -13 3 -17c3 -3 9 -6 13 -7c13 -4 48 -5 71 -2c11 1 25 3 30 3c19 0 19 0 -85 -122l-95 -112v-24v-24l15 -2c8 -1 22 -1 29 -1c21 0 49 -7 69 -17c10 -5 30 -17 44 -27c71 -52 118 -67 145 -46
c9 7 19 22 23 35c3 10 7 39 5 39c0 0 -7 -2 -13 -4c-17 -6 -37 -7 -59 -3s-49 16 -86 38c-38 23 -54 29 -74 29c-5 0 -11 1 -12 2c-4 4 -2 18 2 24c2 3 49 59 106 125s104 122 105 124s3 12 4 21l1 16l-5 -1c-55 -11 -142 -13 -178 -3c-9 2 -19 6 -23 8s-8 4 -9 4
s-5 -5 -9 -11z" />
    <glyph glyph-name="paypal-1" unicode="&#x686;" horiz-adv-x="463" arabic-form="final" 
d="M93 436c6 3 17 4 109 4c94 0 102 0 116 -4c39 -10 71 -37 81 -70c3 -10 4 -11 14 -18c34 -23 50 -53 50 -94c0 -47 -19 -90 -53 -125c-24 -24 -51 -39 -85 -46c-12 -2 -27 -3 -64 -3h-49l-3 -10c-24 -117 -23 -115 -38 -123c-8 -4 -88 -4 -97 0s-17 16 -17 25
c0 6 6 27 10 42c1 3 -2 3 -25 4l-26 1l-8 7c-14 13 -15 1 30 209c29 133 42 189 45 193c2 3 6 6 10 8zM99 422c-2 -1 -5 -6 -6 -10c-5 -18 -78 -360 -78 -365c0 -3 1 -7 3 -9c3 -4 6 -4 46 -4c38 0 43 1 46 4c2 2 8 28 15 62c7 32 15 61 16 63c3 4 3 4 62 5c56 1 60 2 73 6
c27 9 45 19 64 39c24 24 37 47 45 79c4 16 4 52 0 66c-7 22 -26 44 -49 55c-22 11 -28 11 -135 11c-62 0 -100 -1 -102 -2zM182 353c2 3 4 4 41 3l40 -1l9 -6c24 -17 29 -45 14 -75c-7 -14 -23 -30 -38 -37c-12 -6 -12 -6 -50 -7c-32 -1 -39 0 -41 3s0 12 10 59
c7 31 14 59 15 61zM185 296c-5 -24 -10 -47 -11 -48c-1 -2 6 -2 28 -2c27 0 30 0 39 5c12 6 28 22 33 34c8 19 4 41 -10 50c-6 4 -10 5 -39 5h-31zM405 323c0 -42 -21 -92 -54 -124c-16 -16 -29 -24 -53 -34c-26 -11 -40 -13 -95 -13c-45 0 -49 -1 -50 -4
c-1 -2 -6 -28 -13 -59s-13 -57 -15 -59c-6 -8 -14 -12 -28 -12h-13l-5 -21c-6 -25 -7 -27 -2 -33c4 -4 6 -4 45 -4c36 0 41 1 45 4c3 3 6 15 17 65c7 34 15 64 16 65c2 2 15 2 55 2c58 0 71 2 96 12c27 11 51 31 68 56c30 44 37 100 18 137c-4 9 -17 23 -26 29l-6 4v-11z
" />
    <glyph glyph-name="howcast-1" unicode="&#x6a4;" arabic-form="isolated" 
d="M15 396c8 4 11 5 35 4c25 -1 28 -2 38 -7c6 -3 15 -9 19 -14s24 -35 44 -66l36 -57h83c46 0 84 0 84 1s-14 22 -31 49c-35 56 -37 59 -37 67s6 19 14 23c6 3 11 5 35 4c26 -1 29 -2 39 -7c6 -3 14 -9 18 -13c8 -8 94 -145 100 -157c5 -11 4 -21 -1 -34
c-9 -22 -92 -180 -98 -187c-3 -4 -11 -10 -17 -13c-10 -6 -12 -6 -39 -7c-31 -1 -38 1 -44 12c-8 13 -6 17 33 91c20 38 36 69 36 70s-39 1 -87 1h-86l-38 -74c-21 -41 -41 -77 -45 -81s-11 -10 -17 -13c-9 -5 -13 -5 -40 -6h-29l-8 8c-14 14 -15 12 41 120l49 94l-48 76
c-26 42 -49 79 -51 82c-7 13 -1 27 12 34zM20 380c-4 -3 -5 -4 -3 -9c1 -3 23 -40 50 -82s50 -79 51 -81c2 -3 -5 -18 -48 -100c-28 -53 -50 -99 -50 -101c0 -8 4 -9 28 -9c28 0 40 4 49 18c3 5 23 42 44 82l38 73h102h102v-4c0 -3 -14 -33 -38 -80c-22 -41 -39 -77 -39 -80
c0 -8 3 -9 28 -9c21 0 24 0 33 5c6 3 13 8 15 11c9 13 96 183 97 190c1 9 2 9 -45 83c-53 84 -53 83 -64 90c-9 5 -11 6 -34 7c-26 1 -34 -2 -34 -10c0 -2 16 -29 36 -60c43 -68 41 -65 38 -70c-2 -4 -4 -5 -101 -4l-98 1l-39 63c-50 80 -50 80 -92 80c-18 0 -22 -1 -26 -4z
" />
    <glyph glyph-name="wechat-1" unicode="&#x6af;" horiz-adv-x="495" arabic-form="isolated" 
d="M181 424c46 5 95 -5 134 -26c61 -33 99 -93 96 -152l-1 -16l8 -4c33 -17 63 -50 73 -83c5 -16 6 -40 2 -57c-3 -14 -14 -39 -20 -47c-2 -3 -2 -8 1 -36c3 -33 3 -39 -4 -39c-2 0 -17 5 -32 12l-28 12l-15 -5c-23 -8 -39 -9 -66 -8c-25 1 -40 4 -60 12
c-36 15 -66 43 -81 78c-4 10 -5 10 -12 10c-14 1 -31 5 -49 11l-18 6l-37 -16c-20 -9 -39 -16 -41 -16c-7 0 -8 6 -3 49l5 42l-9 14c-25 40 -31 88 -17 132c22 68 91 119 174 127zM184 408c-52 -5 -96 -26 -128 -61c-17 -18 -25 -32 -33 -54c-14 -41 -8 -85 17 -122l10 -15
l-3 -29c-2 -16 -4 -33 -5 -38l-1 -9l35 15l34 15l13 -5c16 -7 41 -13 50 -13h7l1 20c0 33 12 59 38 85c25 25 55 39 91 45c18 3 56 1 71 -3c6 -2 12 -3 13 -2c4 2 0 37 -5 54c-13 39 -45 75 -87 96c-34 17 -79 25 -118 21zM132 358c12 3 25 -1 33 -10c5 -6 10 -18 10 -25
s-5 -19 -10 -25c-16 -17 -44 -13 -56 7c-12 21 -1 48 23 53zM268 359c2 1 13 -1 19 -3c14 -5 24 -25 21 -39c-8 -41 -66 -40 -72 1c-3 16 10 36 25 39c3 1 6 2 7 2zM134 342c-7 -1 -15 -11 -15 -19c0 -10 9 -19 19 -19c9 0 16 4 19 12c6 14 -7 29 -23 26zM266 342
c-19 -5 -17 -35 3 -39c19 -4 31 20 17 34c-6 6 -11 7 -20 5zM303 225c-65 -15 -111 -67 -107 -123c3 -41 28 -76 70 -96c22 -11 37 -14 64 -15c26 -1 48 2 68 10l12 5l25 -11l25 -11l-2 10c-5 44 -5 44 0 52c15 23 23 46 21 70c-4 49 -44 92 -99 107c-17 5 -59 6 -77 2z
M279 192c8 2 18 1 25 -4c16 -12 15 -40 -2 -49c-8 -4 -22 -4 -30 1c-21 13 -16 45 7 52zM376 189c11 6 14 7 25 1c15 -8 20 -23 13 -38c-11 -21 -40 -21 -51 0c-7 14 -2 29 13 37zM281 176c-8 -5 -9 -17 -1 -22s19 1 19 10c0 10 -10 17 -18 12zM381 174c-10 -8 -5 -22 7 -22
c7 0 13 5 13 13c0 4 -8 13 -13 13c-1 0 -4 -2 -7 -4z" />
    <glyph glyph-name="google-drive-1" unicode="&#x679;" horiz-adv-x="490" arabic-form="isolated" 
d="M169 412c3 1 39 2 81 2h76l5 -4c4 -4 133 -224 140 -239c1 -3 2 -6 0 -8c-2 -3 -14 -3 -86 -3h-84l-4 4c-4 4 -133 228 -135 234c-2 5 2 12 7 14zM181 396c0 -1 28 -51 63 -111l64 -109h70c39 0 70 0 70 1s-28 51 -63 111l-63 110h-71c-39 0 -70 -1 -70 -2zM135 366
c4 5 11 6 16 2c2 -1 20 -33 41 -70c30 -52 39 -68 38 -72c-1 -9 -134 -237 -139 -239c-9 -4 -12 1 -32 35c-10 18 -28 49 -39 68s-20 36 -20 39c0 5 128 229 135 237zM81 243c-34 -59 -62 -109 -63 -111c-1 -3 6 -18 33 -64c19 -33 35 -60 36 -60s29 50 64 110l64 110
l-35 59c-19 33 -34 60 -35 61s-30 -46 -64 -105zM216 132c3 3 10 4 135 4c87 0 133 -1 136 -2c8 -4 5 -12 -34 -79c-21 -36 -39 -67 -41 -69c-3 -4 -8 -4 -136 -4c-129 0 -132 0 -136 4c-2 2 -4 6 -4 8c0 4 74 132 80 138zM192 61c-19 -33 -35 -60 -35 -61s52 -2 122 -2h123
l18 32c10 17 26 44 35 60l17 30h-123h-123l-34 -59z" />
    <glyph glyph-name="windows-1" unicode="&#x6af;" arabic-form="initial" 
d="M357 421c68 10 126 19 128 19s5 -1 7 -3c3 -3 4 -10 4 -117c0 -101 0 -114 -3 -117s-17 -3 -132 -3c-117 0 -130 0 -133 3s-4 9 -4 96c0 51 0 94 1 96s3 5 5 6s59 10 127 20zM371 407c-54 -8 -106 -16 -115 -17l-16 -2v-86v-86h120h120v103v103h-6c-3 0 -49 -7 -103 -15z
M100 385c51 7 95 13 97 13s5 -1 7 -3c3 -3 4 -9 4 -96c0 -81 0 -93 -3 -96s-15 -3 -101 -3s-98 0 -101 3s-3 13 -3 82c0 72 1 79 4 83s13 6 96 17zM99 368l-82 -11l-1 -71v-70h88h88v82v82h-6c-3 0 -42 -6 -87 -12zM3 181c3 3 15 3 101 3s98 0 101 -3s3 -15 3 -97
c0 -90 0 -94 -4 -97s-8 -3 -100 10c-79 11 -97 14 -100 17s-4 9 -4 84c0 70 0 80 3 83zM227 180c3 3 10 4 133 4c115 0 130 0 133 -3s3 -16 3 -117c0 -109 0 -114 -4 -117s-10 -2 -132 15c-116 16 -129 18 -132 22s-4 12 -4 99c0 85 0 94 3 97zM16 97v-71l4 -1
c7 -2 164 -23 168 -23c3 0 4 5 4 83v83h-88h-88v-71zM240 81v-86l118 -17c65 -9 119 -16 120 -16s2 46 2 103v103h-120h-120v-87z" />
    <glyph glyph-name="stumbleupon-1" unicode="&#x688;" arabic-form="final" 
d="M221 385c16 4 48 3 64 -3c35 -12 62 -40 73 -74c6 -17 8 -65 4 -69c-1 -1 -15 -6 -30 -11l-26 -8l-20 9l-19 10l-1 20c-1 18 -2 21 -6 25c-6 6 -18 6 -24 0l-5 -4l-1 -92l-1 -91l-5 -13c-7 -18 -18 -34 -33 -47c-56 -51 -146 -33 -179 35c-11 22 -12 33 -12 79
c0 36 0 39 4 41c6 3 89 3 92 0c2 -2 2 -14 2 -38c0 -44 2 -48 19 -48c4 0 8 1 10 4c4 4 4 10 5 94s2 90 6 102c13 39 45 69 83 79zM225 369c-38 -9 -69 -43 -75 -82c-1 -8 -2 -50 -2 -94c0 -77 0 -80 -4 -87c-6 -10 -16 -16 -29 -16s-23 6 -29 18c-4 8 -4 11 -4 39v31h-33
h-33v-32c0 -38 2 -49 11 -68c24 -49 87 -68 136 -42c13 7 32 26 39 39c11 20 12 26 12 118c0 95 0 95 15 106c6 5 10 6 19 6c21 0 34 -15 34 -42v-14l11 -6c6 -3 13 -5 15 -5s11 3 21 6l19 6v16c0 32 -9 56 -30 77c-23 24 -60 34 -93 26zM267 193c2 2 4 3 4 3l18 -8l17 -8
l24 8c18 6 25 7 28 6c3 -2 4 -6 4 -39c0 -37 0 -37 5 -43c4 -5 7 -6 13 -6s9 1 13 6c5 6 5 7 5 42c0 25 0 36 2 38c3 3 86 3 92 0c4 -2 4 -5 4 -41c0 -46 -1 -57 -12 -79c-14 -29 -41 -52 -73 -61c-17 -5 -48 -5 -65 1c-31 10 -56 32 -70 61c-10 22 -12 32 -12 78
c0 32 0 39 3 42zM414 146c-1 -36 -2 -42 -14 -50c-5 -4 -10 -5 -20 -5s-15 1 -20 5c-12 8 -13 14 -14 49c-1 23 -1 31 -3 30c-1 0 -10 -3 -20 -6c-19 -6 -16 -6 -35 2l-8 3v-30c0 -36 2 -47 11 -66c13 -28 43 -49 75 -54c42 -6 85 16 103 54c9 20 11 30 11 68v32h-33h-33
v-32z" />
    <glyph glyph-name="quora-1" unicode="&#x687;" horiz-adv-x="474" arabic-form="medial" 
d="M179 438c77 11 152 -21 199 -84c28 -38 42 -81 42 -131c0 -58 -20 -109 -58 -149l-10 -12l4 -6c2 -3 8 -10 14 -15c21 -19 46 -14 51 8c3 14 5 15 28 15c13 0 21 0 23 -2c6 -6 -1 -39 -12 -61c-17 -35 -45 -53 -83 -56c-20 -1 -35 1 -53 10c-17 9 -33 23 -48 43l-11 15
l-11 -2c-18 -4 -53 -6 -72 -3c-79 12 -145 68 -171 145c-11 31 -14 75 -8 109c10 56 44 110 91 142c24 16 59 30 85 34zM177 421c-76 -15 -135 -70 -156 -148c-4 -14 -4 -21 -4 -50c0 -37 3 -51 15 -81c13 -32 42 -67 70 -86c17 -12 42 -23 61 -28c23 -6 56 -7 79 -3
c34 6 30 8 41 -9c15 -22 33 -38 51 -47c15 -7 15 -8 36 -8c27 0 39 4 56 20c13 12 24 31 29 51c4 16 4 16 -7 16c-9 0 -10 -1 -13 -8c-7 -18 -19 -26 -39 -26c-13 0 -21 3 -33 12c-10 7 -29 31 -29 37c0 2 4 8 9 13c24 23 43 56 54 91c5 17 6 20 6 56s-1 39 -6 56
c-12 40 -35 75 -65 100c-18 15 -52 33 -75 39c-21 5 -60 7 -80 3zM192 404c21 4 39 1 60 -9c36 -18 63 -57 78 -113c5 -18 5 -22 5 -59s0 -41 -5 -59c-8 -30 -16 -48 -22 -51c-4 -2 -5 -1 -11 6c-12 16 -29 31 -40 36c-28 13 -64 11 -96 -5c-11 -6 -12 -5 -9 -13
c2 -5 4 -5 16 -5c30 0 44 -6 59 -25c13 -16 28 -43 28 -49s-13 -13 -32 -16c-43 -7 -88 22 -114 73c-50 100 -20 240 60 280c8 4 18 8 23 9zM195 388c-19 -4 -42 -19 -56 -38c-27 -36 -41 -87 -38 -139s19 -97 48 -126c15 -15 36 -26 53 -28c11 -1 34 2 34 5
c0 2 -14 24 -22 35c-11 15 -18 18 -46 18h-23l-7 16c-9 19 -9 20 13 32c26 14 56 19 85 15c20 -3 37 -12 54 -28c8 -7 15 -12 15 -12s3 7 5 15c28 90 -3 197 -66 228c-16 8 -32 10 -49 7z" />
    <glyph glyph-name="paypal-2" unicode="&#x686;" horiz-adv-x="420" arabic-form="initial" 
d="M76 436c7 4 11 4 104 3c92 -1 98 -1 114 -5c56 -15 85 -49 84 -101l-1 -17l13 -11c29 -26 36 -60 25 -109c-13 -58 -41 -93 -90 -110c-15 -5 -46 -10 -65 -10c-11 0 -16 -1 -18 -3c-1 -2 -6 -28 -11 -58c-9 -59 -10 -63 -22 -68c-9 -4 -88 -4 -97 0c-10 5 -11 12 -7 35
l4 20h-49l-48 1l-6 7c-4 4 -6 8 -6 12c0 3 14 94 31 202c23 145 31 197 34 202c2 3 7 8 11 10zM81 420c-3 -4 -10 -44 -35 -201c-17 -108 -30 -198 -29 -199c2 -3 87 -3 87 0c0 1 5 32 11 70c12 72 12 74 24 83c5 4 10 4 53 5s49 2 65 7c10 3 22 7 27 10c24 12 45 34 58 59
c13 26 22 64 20 91c-2 28 -20 53 -47 65s-31 12 -135 13l-95 1zM373 294c0 -1 -3 -9 -5 -17c-13 -44 -41 -79 -79 -97c-28 -14 -43 -17 -95 -18c-38 -1 -46 -1 -49 -4c-2 -2 -7 -20 -13 -61c-9 -55 -8 -57 -5 -64s3 -8 -3 -38c-3 -17 -6 -32 -5 -33s20 -2 42 -2
c36 0 40 1 43 4c2 2 6 20 11 52c9 60 9 62 17 69c6 6 7 6 33 7c34 2 51 6 71 16c35 17 55 48 65 98c4 22 3 48 -3 61c-8 17 -23 34 -25 27z" />
    <glyph glyph-name="snapchat-1" unicode="&#x68e;" horiz-adv-x="495" arabic-form="final" 
d="M213 428c8 2 22 4 34 4c84 1 153 -68 153 -154v-14h8c12 0 28 -8 35 -18c11 -16 12 -35 2 -53c-6 -11 -13 -16 -28 -22l-11 -4l5 -10c10 -18 24 -30 46 -37c16 -5 27 -12 32 -20c10 -15 8 -33 -4 -47c-9 -10 -22 -17 -46 -22c-3 -1 -5 -2 -5 -4c0 -5 -8 -17 -14 -23
c-10 -10 -18 -12 -49 -12h-28l-25 -14c-34 -19 -46 -23 -70 -23s-36 4 -70 23l-26 14h-28c-31 0 -39 2 -49 12c-6 6 -13 18 -13 23c0 2 -3 3 -6 4c-24 5 -37 12 -46 22c-12 14 -14 32 -4 47c5 8 17 15 33 20c22 7 36 19 46 37l5 10l-11 4c-15 6 -23 11 -29 22
c-10 18 -9 37 2 53c7 10 23 18 35 18h9v14c0 72 48 133 117 150zM214 412c-47 -12 -84 -50 -97 -97c-2 -7 -4 -24 -5 -39c-1 -16 -2 -27 -3 -28s-9 -1 -17 -1c-12 0 -17 -1 -21 -4c-8 -6 -12 -14 -12 -24c0 -17 7 -24 31 -35c15 -7 16 -7 16 -13c0 -9 -13 -32 -23 -43
c-10 -10 -24 -19 -43 -25c-21 -7 -29 -21 -20 -36c6 -10 16 -15 48 -22c4 -1 6 -3 8 -10c7 -24 10 -26 51 -27l32 -1l26 -14c34 -18 42 -22 63 -22s29 4 63 22l26 14l32 1c41 1 44 3 51 27c2 7 3 9 7 10c32 7 43 12 49 22c9 15 1 29 -20 36c-34 11 -53 28 -65 59
c-2 5 -3 10 -2 12s6 6 16 10c16 6 27 15 30 24s1 20 -3 27c-6 10 -16 14 -31 12c-9 -1 -13 -1 -15 1c-1 1 -2 15 -3 29c-2 46 -11 69 -40 98c-21 21 -38 31 -63 37c-20 5 -46 5 -66 0z" />
    <glyph glyph-name="facebook-like-1" unicode="&#x67a;" horiz-adv-x="495" arabic-form="isolated" 
d="M269 409c2 1 9 0 17 0c11 0 16 -1 19 -4c9 -8 23 -41 28 -65c3 -13 1 -28 -7 -66c-3 -12 -4 -22 -3 -23s33 -1 72 -1c79 0 79 0 92 -15s9 -39 -8 -53c-7 -6 -8 -7 -5 -12c4 -7 4 -21 0 -29c-1 -4 -6 -9 -10 -13l-9 -8l4 -7c7 -13 2 -33 -12 -43c-5 -4 -6 -5 -3 -10
c2 -3 3 -9 3 -15c0 -13 -6 -22 -19 -29l-10 -5l-104 -1h-104l-16 8c-10 5 -18 8 -23 8c-4 0 -8 1 -9 2c-2 2 -3 23 -3 84v82l10 7c21 16 32 30 66 89l23 38l-2 36l-1 35l5 4c3 2 7 5 9 6zM272 393c-1 -1 -1 -17 0 -35l2 -33l-21 -36c-32 -56 -44 -72 -62 -89l-16 -16v-71
c0 -70 0 -71 4 -71c2 0 11 -4 19 -8l14 -8h97c102 0 114 1 119 9c5 7 4 16 -2 23c-8 9 -7 15 4 21c8 4 17 14 17 20c0 3 -2 8 -5 11c-7 8 -7 15 0 21c16 13 19 17 19 25c0 6 -1 8 -4 10c-6 3 -6 15 0 20c15 12 20 16 21 23c2 9 -1 16 -9 21c-6 4 -10 4 -83 4
c-68 0 -77 0 -80 3c-2 2 -3 5 -2 8c4 16 14 70 14 81c0 15 -5 32 -16 54l-7 14h-11c-6 0 -11 0 -12 -1zM16 214c6 3 11 4 58 4c58 0 60 0 70 -13l6 -8l1 -88c1 -86 0 -88 -4 -96c-2 -5 -8 -10 -12 -13c-7 -4 -9 -5 -47 -6c-25 0 -44 1 -49 2c-10 3 -19 11 -22 19
c-3 9 -18 171 -17 178c1 8 8 16 16 21zM20 197c-3 -3 -5 -6 -5 -8c0 -6 16 -164 17 -168c2 -9 10 -11 52 -11h39l6 6l6 6v86l-1 86l-5 4c-4 4 -8 4 -54 4h-50l-5 -5z" />
    <glyph glyph-name="dribbble-1" unicode="&#x67e;" arabic-form="initial" 
d="M211 437c47 7 98 0 142 -21c28 -13 48 -27 70 -49s36 -42 49 -70c45 -94 25 -206 -49 -280c-97 -97 -253 -97 -350 0c-22 22 -36 42 -49 70c-26 54 -31 115 -14 175c6 20 21 52 34 71c14 20 42 49 62 63c31 21 68 35 105 41zM215 422c-33 -5 -79 -24 -104 -43
c-90 -68 -120 -187 -72 -287c16 -34 41 -63 72 -87c16 -12 52 -30 74 -36c79 -23 167 1 225 59c21 21 32 35 45 61c33 67 33 141 0 207c-45 89 -142 140 -240 126zM215 398c5 1 23 1 39 1c44 -1 74 -11 109 -34c20 -13 24 -18 22 -23c-2 -6 -32 -35 -51 -48
c-17 -12 -55 -32 -61 -32c-4 0 -6 3 -26 37c-9 15 -24 42 -35 58c-16 25 -20 30 -18 33c2 4 5 5 21 8zM219 383l-5 -1l16 -24c9 -13 22 -36 31 -51l16 -27l18 9c20 10 47 30 61 45l10 10l-12 8c-32 22 -59 30 -101 31c-15 0 -31 1 -34 0zM138 369c12 8 21 11 24 11
c4 0 9 -7 21 -24c16 -22 45 -66 56 -87c9 -17 7 -19 -44 -28c-47 -8 -140 -14 -146 -9c-5 4 -4 12 3 30c16 44 46 82 86 107zM142 352c-18 -12 -46 -41 -57 -58c-8 -14 -21 -42 -21 -46c0 -2 5 -2 27 -1c66 3 131 12 131 18c0 5 -61 97 -64 97c-1 0 -8 -5 -16 -10zM387 308
c9 9 17 16 18 16c4 0 8 -5 18 -20c12 -18 20 -40 26 -62c5 -20 8 -46 5 -50c-2 -2 -6 -2 -29 1c-29 4 -66 4 -100 2l-22 -1l-10 20c-5 11 -9 22 -8 23s12 9 26 16c30 15 54 32 76 55zM391 290c-18 -18 -43 -36 -66 -48c-11 -6 -21 -11 -21 -11s1 -5 4 -11l5 -10l10 1
c17 2 73 2 95 -1c11 -1 20 -2 21 -1c2 2 -7 38 -13 54s-19 40 -22 39c-1 0 -6 -6 -13 -12zM229 224c27 7 27 6 31 2c5 -5 16 -30 16 -35c0 -4 -2 -5 -10 -8c-40 -14 -59 -25 -86 -45c-20 -15 -49 -45 -66 -68c-7 -10 -14 -18 -16 -18c-7 0 -27 27 -39 53
c-13 27 -23 79 -19 96l2 5l35 1c70 3 114 7 152 17zM227 207c-35 -8 -112 -16 -169 -17c-4 0 -1 -27 5 -49c6 -20 20 -51 28 -61l6 -6l12 15c36 46 79 80 131 101l17 7l-3 8c-2 4 -4 7 -5 7s-11 -2 -22 -5zM330 172c15 2 82 1 101 -3c25 -4 24 -5 19 -26
c-12 -44 -36 -84 -70 -111c-19 -15 -25 -16 -28 -1c-11 49 -16 71 -25 99c-6 18 -11 34 -11 35c0 4 4 5 14 7zM267 158c19 7 17 7 21 4c7 -6 36 -102 42 -142c3 -20 3 -20 -18 -26c-42 -13 -88 -13 -128 0c-27 9 -64 30 -66 38c-1 5 29 43 50 64c29 29 61 49 99 62zM338 156
c-2 -1 -1 -7 6 -29c5 -15 12 -41 16 -56s7 -29 7 -29c1 -1 24 22 34 35c5 7 13 19 18 28c9 17 18 44 16 46c-5 5 -91 9 -97 5zM256 137c-29 -12 -61 -34 -83 -58c-11 -11 -35 -42 -35 -44c0 -3 28 -17 43 -23c36 -13 79 -15 115 -6c9 2 17 5 18 5c3 2 -10 60 -21 95
c-9 30 -13 38 -17 38c-2 0 -11 -3 -20 -7z" />
    <glyph glyph-name="buffer-1" unicode="&#x67b;" horiz-adv-x="466" arabic-form="final" 
d="M117 386c90 43 113 54 118 53c8 -1 221 -104 227 -109c3 -3 4 -6 4 -12s-1 -8 -4 -11c-8 -7 -222 -109 -229 -109c-8 0 -224 104 -229 110c-4 5 -5 16 -1 21c1 2 52 27 114 57zM124 372c-59 -29 -108 -53 -108 -54c0 -2 216 -105 219 -104c7 2 214 103 214 105
s-215 105 -217 105c-1 0 -49 -23 -108 -52zM32 219c13 6 24 11 26 11s36 -16 76 -35s77 -36 81 -38c10 -4 26 -4 36 0c4 2 41 19 81 38s75 35 76 35c4 0 49 -21 54 -26c3 -3 4 -7 4 -12s-1 -9 -4 -12c-7 -7 -222 -109 -229 -109s-221 103 -228 110c-6 6 -6 17 0 23
c2 2 14 9 27 15zM36 203c-11 -5 -20 -10 -20 -11c0 -2 216 -105 219 -104c6 2 215 103 215 104c0 2 -37 20 -41 20c-2 0 -36 -15 -75 -34s-75 -35 -80 -37c-12 -4 -32 -4 -43 0c-5 2 -41 18 -80 37s-71 34 -73 34s-11 -4 -22 -9zM30 91c14 7 26 13 27 13s37 -17 80 -38
l78 -37h18h18l79 38l78 38l25 -12c30 -14 33 -17 33 -27c0 -6 -1 -9 -4 -12c-6 -5 -219 -108 -227 -109c-5 -1 -28 10 -118 53c-62 30 -113 55 -114 57c-3 4 -4 14 -1 19c1 2 14 10 28 17zM36 76c-10 -5 -19 -10 -20 -10c-2 -1 2 -2 111 -55l106 -51l108 52
c59 29 109 52 109 53s-9 7 -21 12l-21 10l-10 -5c-5 -3 -39 -19 -76 -37l-67 -32h-22h-22l-75 37c-42 20 -77 36 -78 36s-12 -5 -22 -10z" />
    <glyph glyph-name="tencent-qq-1" unicode="&#x698;" horiz-adv-x="460" arabic-form="isolated" 
d="M208 438c18 2 23 2 42 0c65 -8 120 -55 138 -118c5 -18 7 -51 4 -70l-3 -14l16 -17c41 -43 60 -89 54 -134c-3 -22 -6 -32 -11 -34c-7 -3 -27 8 -39 21l-10 10l-5 -13c-3 -7 -9 -17 -12 -22s-7 -9 -7 -10s4 -2 7 -4c8 -4 22 -16 25 -23c4 -7 4 -23 0 -30
c-4 -8 -18 -19 -27 -24c-35 -17 -87 -16 -120 3c-8 5 -12 6 -30 6c-17 0 -21 -1 -27 -4c-39 -24 -107 -21 -137 6c-5 4 -10 10 -12 13c-4 7 -4 23 0 30s17 18 25 22c3 2 6 3 6 4s-3 6 -6 11s-9 15 -12 22l-6 13l-9 -10c-5 -6 -15 -12 -22 -16c-17 -8 -20 -7 -25 10
c-14 51 4 107 50 154l15 15l-2 15c-5 28 -1 65 12 93c22 50 73 88 128 95zM209 422c-36 -5 -73 -26 -95 -55c-27 -34 -37 -74 -30 -117l4 -20l-19 -20c-40 -41 -57 -80 -52 -121c1 -9 2 -18 3 -19s5 1 9 3c7 4 13 11 29 31c4 6 6 6 9 4c2 -1 5 -6 7 -13c5 -16 15 -36 25 -49
c12 -16 12 -18 -6 -25c-5 -2 -14 -7 -18 -11c-6 -6 -8 -9 -8 -15s2 -9 8 -15c25 -24 90 -27 121 -5c8 5 9 6 33 6s26 0 35 -6c36 -22 103 -18 124 7c8 10 8 19 -2 28c-4 4 -13 9 -18 11c-18 7 -18 9 -6 25c9 12 22 38 26 52c3 9 7 13 12 11c1 -1 5 -5 7 -9
c7 -11 17 -23 25 -27c4 -2 7 -4 8 -3s2 8 3 16c5 42 -12 84 -52 124l-20 20l3 15c14 66 -20 134 -80 163c-27 13 -57 18 -85 14z" />
    <glyph glyph-name="odnolassniki-1" unicode="&#x683;" horiz-adv-x="300" arabic-form="final" 
d="M122 437c41 9 86 -3 117 -33c17 -16 27 -33 34 -55c4 -13 6 -20 6 -39c0 -21 -1 -25 -6 -40c-12 -35 -34 -60 -66 -75c-22 -11 -33 -13 -55 -13c-24 0 -38 3 -60 13c-56 27 -84 93 -66 153c13 43 52 79 96 89zM129 422c-23 -5 -48 -19 -63 -36c-40 -45 -38 -109 3 -153
c23 -24 48 -35 82 -35c39 0 73 19 95 52c21 33 22 78 3 115c-22 41 -74 66 -120 57zM135 376c4 1 14 1 21 1c59 -4 83 -79 38 -118c-30 -25 -78 -18 -99 15c-24 39 -4 91 40 102zM133 358c-25 -10 -38 -36 -30 -62c6 -22 25 -36 48 -36s42 14 48 36c12 40 -28 77 -66 62z
M23 195c7 4 21 4 30 -1c3 -2 14 -8 23 -13c24 -13 41 -17 67 -18c34 -2 63 6 90 23c22 14 38 15 52 3c13 -11 18 -28 13 -42c-3 -7 -12 -17 -27 -28c-19 -14 -41 -23 -74 -30c-6 -1 -5 -2 33 -41c43 -44 47 -50 49 -59c4 -21 -17 -45 -41 -45c-11 0 -22 8 -55 42l-33 34
l-35 -35c-35 -36 -43 -41 -56 -41c-16 0 -34 15 -37 32c-4 19 -1 23 45 70c40 41 41 42 36 43c-30 7 -45 12 -62 22c-30 18 -41 31 -41 48c0 15 9 28 23 36zM29 180c-6 -3 -13 -13 -13 -21c0 -21 54 -50 103 -56c11 -1 17 -5 17 -10c0 -1 -22 -24 -49 -51
c-48 -49 -49 -50 -49 -58c0 -10 4 -17 12 -21c12 -6 14 -6 55 35c35 35 39 38 45 38s10 -3 40 -34c35 -36 42 -42 50 -42c13 0 26 16 23 28c-1 4 -18 22 -49 53c-56 56 -57 59 -32 62c18 2 42 9 57 16s37 23 42 30c4 6 4 14 -1 22c-8 14 -19 14 -41 0
c-27 -17 -56 -25 -88 -25c-33 0 -57 6 -88 24c-19 11 -27 13 -34 10z" />
    <glyph glyph-name="instagram-1" unicode="&#x6a4;" horiz-adv-x="494" arabic-form="initial" 
d="M48 437c6 2 49 2 202 2h194l11 -5c14 -7 27 -20 34 -34l5 -11v-197v-197l-5 -11c-7 -14 -20 -27 -34 -34l-11 -5h-197h-197l-11 5c-14 7 -27 20 -34 34l-5 11v197v197l5 11c8 18 24 31 43 37zM53 422c-14 -4 -26 -14 -33 -28c-4 -7 -4 -16 -4 -202s0 -195 4 -202
c5 -10 15 -20 24 -25l8 -4h195h195l8 4c9 5 19 15 24 25c4 7 4 16 4 202v195l-4 8c-5 9 -15 19 -25 24c-7 4 -16 4 -199 4c-106 0 -194 0 -197 -1zM341 382c6 4 11 4 43 4c33 0 36 0 42 -4c12 -8 14 -13 14 -51c0 -32 -1 -34 -5 -41c-8 -12 -13 -14 -53 -14
c-33 0 -35 1 -41 5c-12 8 -14 14 -14 51s1 42 14 50zM346 366c-2 -4 -3 -11 -3 -35c0 -41 -2 -39 41 -39c42 0 40 -2 41 38c1 27 0 30 -4 35l-4 5h-34c-33 0 -34 0 -37 -4zM219 291c14 4 42 4 57 0c37 -10 66 -41 74 -79c13 -60 -38 -120 -102 -120c-42 0 -77 22 -95 59
c-19 39 -11 81 21 112c15 15 28 23 45 28zM227 277c-13 -3 -31 -13 -42 -24c-33 -33 -34 -82 -4 -116c21 -24 56 -34 88 -27c43 10 73 54 66 96c-5 28 -24 53 -50 65c-11 5 -16 6 -33 6c-11 0 -22 1 -25 0zM54 235c1 1 13 1 28 1c32 0 33 0 28 -19c-2 -10 -3 -20 -2 -36
c2 -38 13 -63 40 -90c24 -23 47 -35 80 -39c32 -4 71 4 98 22c26 17 48 46 57 76c5 18 6 52 2 70c-4 16 -3 16 27 16c19 0 25 -1 27 -3s2 -30 2 -108c-1 -100 -1 -106 -5 -112c-8 -14 3 -14 -193 -13l-176 1l-7 7l-7 8v109c0 60 0 109 1 110zM69 120c0 -75 0 -100 2 -102
s44 -2 175 -2h173l3 4c3 4 3 17 3 102v98h-12h-11l1 -10c13 -77 -40 -152 -120 -171c-19 -5 -57 -5 -75 0c-49 13 -90 47 -107 93c-8 22 -10 39 -9 65l1 23h-12h-12v-100z" />
    <glyph glyph-name="tumblr-1" unicode="&#x691;" horiz-adv-x="300" arabic-form="isolated" 
d="M95 438c1 1 19 2 40 2c34 0 39 -1 42 -4s3 -11 3 -59l1 -56l49 -1h50l3 -5c3 -4 4 -11 3 -42c-1 -34 -1 -37 -5 -40c-3 -2 -13 -3 -52 -3h-49v-78c1 -77 1 -77 6 -86c12 -22 32 -31 58 -26c13 2 22 6 35 15c8 5 14 5 19 -1c2 -2 2 -13 2 -41v-39l-6 -4
c-22 -16 -74 -27 -112 -25c-57 3 -106 40 -119 90c-3 10 -3 27 -3 103v92h-26c-22 0 -27 0 -30 3s-4 7 -4 41c0 43 -1 40 18 47c14 5 35 21 44 32c16 20 26 46 26 67c0 9 3 15 7 18zM104 418c0 -13 -6 -36 -14 -52c-12 -24 -30 -42 -55 -54l-19 -9v-29v-28h26
c38 0 34 11 34 -105c0 -90 0 -95 4 -107c12 -35 44 -63 84 -71c29 -6 78 0 109 14l11 5v28v28l-10 -5c-14 -7 -36 -12 -50 -10s-34 11 -42 20c-4 4 -9 13 -12 19l-5 11l-1 81c-1 80 0 82 4 87l4 5h49h49v29v29h-49c-49 1 -49 1 -53 6c-4 4 -4 8 -4 59v55h-30h-30v-6z" />
    <glyph glyph-name="hacker-news-1" unicode="&#x679;" arabic-form="medial" 
d="M3 438c3 3 488 3 491 0s3 -489 0 -492s-488 -3 -491 0s-3 489 0 492zM16 192v-232h232h232v232v232h-232h-232v-232zM116 369c1 1 15 1 31 1h30l35 -72c19 -40 35 -72 36 -72s18 32 38 72l36 72h29c27 0 29 0 30 -4c1 -3 -14 -34 -51 -107l-52 -104v-57
c0 -32 -1 -60 -2 -63l-2 -5h-25c-17 0 -26 0 -28 2s-3 18 -3 62v60l-52 103c-29 56 -52 104 -52 106s1 5 2 6zM136 353c0 -1 22 -45 49 -98l49 -97v-56v-56h13h13v54v55l50 99l50 100h-14l-14 -1l-40 -77c-36 -70 -39 -77 -44 -77s-8 6 -43 77l-39 78h-15c-8 0 -15 0 -15 -1
z" />
    <glyph glyph-name="flickr-1" unicode="&#x67a;" horiz-adv-x="494" arabic-form="initial" 
d="M100 312c42 5 84 -15 108 -51c23 -35 23 -86 0 -121c-22 -33 -51 -49 -90 -51c-36 -2 -60 7 -85 32c-43 43 -44 110 -3 155c19 20 42 33 70 36zM368 312c16 2 36 -1 49 -5c39 -13 70 -50 76 -91c8 -56 -28 -110 -83 -125c-14 -4 -44 -4 -58 0c-43 11 -76 49 -82 93
c-9 63 36 122 98 128zM370 296c-40 -4 -73 -33 -83 -73c-13 -49 18 -102 67 -116c14 -4 40 -4 54 0c46 13 76 61 69 107c-5 34 -31 66 -63 77c-12 4 -31 6 -44 5zM82 292c-34 -12 -57 -39 -64 -72c-3 -16 -1 -41 4 -55c24 -62 106 -82 155 -37c22 20 32 42 32 72
c0 40 -20 71 -56 88c-15 7 -17 7 -38 8c-18 0 -24 -1 -33 -4z" />
    <glyph glyph-name="mail-1" unicode="&#x6b1;" arabic-form="isolated" 
d="M3 358c3 3 488 3 491 0s3 -329 0 -332s-488 -3 -491 0s-3 329 0 332zM59 314c73 -71 187 -181 189 -181s98 91 188 179l32 32h-220h-219zM16 192v-140l59 59c32 33 63 66 70 73l12 13l-47 45c-26 25 -57 56 -70 68l-24 22v-140zM410 265c-38 -37 -69 -69 -69 -70
s31 -33 69 -72l69 -70l1 69v140l-1 70zM98 112l-70 -71l110 -1h220l110 1l-71 72l-70 72l-38 -37c-21 -20 -39 -36 -41 -36s-19 16 -40 36s-37 36 -38 36s-33 -33 -72 -72z" />
    <glyph glyph-name="youtube-1" unicode="&#x6b3;" arabic-form="final" 
d="M85 358c14 3 309 3 324 0c41 -7 78 -44 85 -85c3 -16 3 -162 0 -178c-7 -41 -44 -78 -85 -85c-16 -3 -306 -3 -322 0c-40 7 -77 43 -85 84c-3 14 -3 166 0 180c8 40 44 77 83 84zM84 341c-33 -9 -59 -37 -66 -70c-1 -7 -2 -38 -2 -93c1 -81 1 -83 6 -94
c10 -25 32 -46 57 -55c10 -3 20 -4 169 -4s160 1 170 4c25 9 46 30 56 55c5 11 5 12 5 99c0 80 -1 89 -4 99c-9 25 -30 46 -55 56l-11 5h-157c-133 0 -159 0 -168 -2zM177 256c2 3 5 4 9 4s32 -13 74 -34c74 -37 76 -39 70 -50c-2 -4 -18 -12 -72 -37
c-46 -21 -70 -33 -73 -32c-2 1 -5 3 -7 5c-3 4 -4 11 -4 72c0 58 0 68 3 72zM190 183v-59l31 15c17 8 44 20 60 28s29 14 29 15s-117 60 -119 60c-1 0 -1 -27 -1 -59z" />
    <glyph glyph-name="whatsapp-1" unicode="&#x6af;" horiz-adv-x="490" arabic-form="final" 
d="M206 437c21 4 68 2 88 -2c51 -11 87 -31 124 -68c46 -46 69 -98 72 -163c3 -70 -24 -136 -75 -186c-22 -21 -40 -35 -64 -46c-38 -18 -63 -23 -108 -23c-29 0 -36 0 -54 5c-12 3 -28 9 -36 12l-15 6l-62 -14c-57 -13 -62 -15 -67 -12c-12 7 -12 7 2 76l13 63l-6 15
c-4 8 -9 25 -12 37c-5 19 -6 26 -6 55c0 45 7 76 25 112c36 71 103 120 181 133zM208 421c-10 -1 -25 -6 -35 -9c-128 -43 -192 -185 -139 -309l7 -16l-13 -63c-7 -35 -12 -63 -12 -63s27 5 60 13s62 14 65 13s11 -3 18 -6c45 -19 100 -22 149 -8c126 36 196 170 155 294
c-36 107 -143 171 -255 154zM150 310c6 4 10 6 16 6c15 0 19 -5 33 -35c16 -34 16 -38 2 -55c-10 -12 -9 -16 16 -41c21 -21 50 -43 57 -43c2 0 6 3 10 7c9 10 17 15 24 15c3 0 18 -3 32 -7c30 -8 38 -14 40 -27c2 -15 -18 -43 -40 -53c-42 -19 -103 2 -160 57
c-50 48 -73 101 -59 138c5 13 18 30 29 38zM151 289c-15 -16 -19 -26 -18 -44c3 -35 28 -74 70 -110c38 -33 72 -48 105 -48c22 0 30 3 45 20c12 13 14 19 9 24c-3 3 -47 17 -53 17c-2 0 -7 -5 -13 -10c-14 -13 -22 -14 -36 -7c-21 10 -61 45 -75 65c-9 13 -9 24 2 38
c4 6 8 12 8 13c0 3 -17 43 -21 49c-5 7 -12 5 -23 -7z" />
    <glyph glyph-name="pied-piper-1" unicode="&#x687;" arabic-form="isolated" 
d="M3 438c3 3 488 3 491 0s3 -489 0 -492s-488 -3 -491 0s-3 489 0 492zM16 192v-232h232h232v232v232h-232h-232v-232zM101 362c4 4 103 3 119 -1c28 -7 49 -23 60 -46c4 -9 5 -15 6 -32l1 -20l19 -2c30 -2 53 -10 68 -25c27 -26 32 -70 13 -105c-14 -26 -48 -41 -91 -41
h-16v-31c0 -18 -1 -33 -2 -35c-2 -4 -5 -4 -32 -4c-16 0 -31 0 -33 1c-3 1 -3 10 -3 87v86l-6 -1c-3 -1 -13 -1 -21 -1h-15v-33c0 -23 0 -33 -2 -35c-3 -3 -62 -3 -65 0s-3 235 0 238zM114 243v-105h19h19v33c0 23 1 33 3 35s9 2 22 2c11 0 25 1 31 2c19 4 18 9 18 -89v-85
h19h19l1 34v35l30 1c23 1 33 3 42 6c30 11 44 31 44 62c0 21 -4 34 -15 47c-15 17 -32 23 -71 25l-26 1l1 23c1 20 0 25 -4 35c-8 21 -26 36 -51 41c-6 1 -31 2 -56 2h-45v-105zM155 312c2 2 10 2 26 2c28 0 37 -3 45 -14c7 -10 8 -30 2 -42c-8 -15 -17 -18 -47 -18
c-16 0 -24 0 -26 2c-3 3 -3 67 0 70zM168 277v-21h18c17 0 18 0 24 6c5 5 6 8 6 16c0 9 -1 10 -6 15c-6 5 -8 5 -24 5h-18v-21zM265 209c1 4 49 4 58 0c14 -6 22 -23 20 -40c-2 -12 -8 -22 -19 -27c-8 -4 -11 -4 -34 -4l-25 1v34c0 19 -1 35 0 36zM280 175v-21h16
c19 0 26 3 30 12c3 8 1 20 -4 25c-3 3 -7 4 -23 5h-19v-21z" />
    <glyph glyph-name="magento-1" unicode="&#x684;" horiz-adv-x="424" arabic-form="medial" 
d="M203 435c5 3 10 5 12 4c4 -1 200 -122 206 -127c3 -3 3 -11 3 -120s0 -117 -3 -120c-8 -7 -54 -34 -58 -34c-2 0 -6 2 -7 3c-2 2 -2 36 -2 117l-1 114l-58 36c-32 20 -63 40 -70 44l-12 8l-71 -44l-71 -44l-1 -117l-1 -116l-5 -1c-4 0 -13 5 -32 16c-15 9 -28 18 -29 20
c-4 5 -4 231 0 236c2 3 173 109 200 125zM174 399c-20 -13 -64 -40 -97 -60l-61 -38v-109v-109l19 -11l18 -12l1 110c1 69 2 111 3 112c6 6 153 94 156 94c4 0 145 -87 154 -94c3 -3 3 -10 3 -112c0 -60 0 -110 1 -110s9 5 19 11l18 11v110l-1 110l-97 60
c-53 33 -97 60 -98 60s-18 -10 -38 -23zM145 273c19 11 35 21 37 21c8 0 8 0 8 -138v-133l11 -7l11 -6l11 6l11 7v133c0 138 0 138 8 138c3 0 64 -36 71 -42c3 -3 3 -11 3 -124v-122l-48 -29c-27 -16 -50 -31 -52 -32s-6 0 -8 1c-8 4 -93 57 -96 60s-4 11 -4 122
c0 66 1 121 2 122s16 12 35 23zM149 256l-25 -15l1 -113v-113l43 -26c24 -15 44 -26 45 -26s22 12 45 26l42 26v113v114l-24 15l-25 15l-1 -129l-1 -130l-17 -10c-9 -6 -18 -11 -19 -11c-2 0 -33 18 -37 21c-1 0 -1 59 -2 130l-1 128l-24 -15z" />
    <glyph glyph-name="google-chrome-1" unicode="&#x67f;" arabic-form="medial" 
d="M211 437c47 7 98 0 142 -21c27 -13 48 -27 69 -48c74 -74 95 -187 51 -280s-136 -148 -238 -143c-61 3 -118 28 -162 72c-22 22 -36 42 -49 70c-45 94 -25 206 49 280c22 22 41 36 69 49c22 11 44 17 69 21zM216 422c-21 -3 -48 -11 -71 -23c-28 -14 -45 -26 -70 -52
l-7 -8l42 -70l42 -69l2 11c6 27 26 54 49 66c22 11 24 11 144 11c61 0 111 0 111 1s-3 7 -6 13c-9 18 -22 35 -40 53c-51 52 -123 76 -196 67zM50 313c-56 -93 -42 -209 33 -284c22 -22 37 -31 62 -44c22 -11 56 -22 61 -20c1 1 11 13 20 29c22 36 64 110 64 111
s-5 -1 -11 -3c-43 -16 -95 4 -117 47c-6 11 -101 170 -104 173c-1 1 -5 -3 -8 -9zM229 270c-13 -3 -30 -14 -39 -23c-4 -5 -12 -16 -15 -23c-6 -12 -6 -15 -6 -32c0 -18 0 -20 7 -34c9 -18 20 -30 39 -39c12 -6 16 -6 33 -6s20 0 32 6c19 9 30 21 39 39c7 14 8 16 8 34
s-1 20 -8 34c-14 27 -37 44 -67 45c-9 0 -19 0 -23 -1zM314 261c27 -26 37 -67 24 -101c-4 -10 -78 -142 -103 -182c-5 -8 -9 -15 -8 -16c2 -3 35 -2 55 1c102 15 179 94 195 196c5 33 2 71 -8 103l-3 10h-82h-82l12 -11z" />
    <glyph glyph-name="linkedin-1" unicode="&#x684;" horiz-adv-x="495" arabic-form="final" 
d="M39 415c10 4 14 5 29 4c27 -1 46 -12 57 -34c6 -12 7 -34 2 -46c-5 -11 -18 -25 -30 -31c-9 -5 -12 -5 -31 -5c-24 0 -34 3 -48 17c-31 30 -20 78 21 95zM43 399c-31 -15 -37 -48 -12 -69c27 -23 75 -11 83 22c4 17 -4 35 -21 45c-8 5 -12 5 -25 6s-16 0 -25 -4zM348 286
c16 2 31 1 51 -3c44 -9 78 -42 91 -90c4 -16 4 -19 5 -119c1 -96 0 -103 -3 -105c-5 -4 -102 -5 -107 -1c-3 2 -3 12 -4 93c-1 83 -1 91 -4 98c-10 22 -27 33 -50 33c-20 0 -32 -7 -42 -26l-4 -9l-1 -92c-1 -81 -1 -92 -4 -95s-8 -4 -55 -4c-51 0 -51 0 -54 4s-3 22 -3 152
s0 148 3 152s4 4 53 4c31 0 52 -1 54 -2c3 -2 4 -4 4 -13c0 -6 0 -11 1 -11s5 3 8 6c14 14 37 25 61 28zM11 274c3 3 7 4 53 4c31 0 52 -1 54 -2c4 -2 4 -6 4 -154s0 -152 -4 -154c-2 -1 -23 -2 -54 -2c-43 0 -50 0 -53 3s-3 19 -3 152c0 136 0 150 3 153zM350 270
c-26 -3 -42 -12 -64 -35c-14 -15 -15 -16 -19 -13s-4 6 -5 22l-1 18h-39h-40v-140v-140h40l41 1l1 88l1 88l5 12c13 28 38 42 68 37c28 -4 49 -24 57 -53c2 -9 3 -27 3 -92v-81h41h41l-1 96c-1 107 -1 107 -15 136c-19 40 -63 62 -114 56zM25 260c-1 -1 -1 -65 -1 -140
l1 -137l40 -1h41v140v140h-40c-30 0 -40 0 -41 -2z" />
    <glyph glyph-name="html5-1" unicode="&#x6a4;" horiz-adv-x="437" arabic-form="final" 
d="M2 437c3 3 29 3 218 3c182 0 215 -1 217 -3s-2 -51 -17 -215c-11 -117 -19 -216 -20 -220c-1 -5 -3 -7 -8 -9c-4 -1 -43 -13 -89 -26l-83 -23l-89 25c-49 14 -89 25 -90 26s-11 97 -21 214s-19 214 -20 218s0 8 2 10zM17 422c0 -4 36 -404 37 -409l1 -6l82 -23l83 -24
l81 23c45 13 81 24 82 25s10 94 20 208l19 208h-202c-111 0 -203 -1 -203 -2zM81 349c2 3 19 3 138 3c132 0 136 0 139 -4c2 -3 2 -8 0 -29c-3 -32 -4 -35 -9 -36c-2 -1 -47 -1 -100 -1h-96l1 -14c1 -8 2 -18 2 -20l1 -4h95c74 0 95 -1 97 -3c3 -4 -13 -168 -17 -172
c-3 -3 -106 -33 -113 -33s-112 30 -115 33s-10 87 -8 92c1 3 5 3 32 3c23 0 31 -1 33 -3c1 -1 2 -11 3 -21l2 -19l25 -7l25 -7l27 7c20 5 26 8 26 10s2 13 3 26l2 24h-85c-47 0 -87 0 -89 1s-5 2 -6 4s-4 40 -8 85c-6 66 -7 83 -5 85zM96 328c1 -4 3 -34 6 -68s5 -64 6 -66
l1 -4h90c63 0 90 0 91 -2c1 -1 0 -19 -2 -39c-3 -28 -5 -38 -7 -40c-4 -3 -56 -17 -64 -17c-6 0 -62 15 -64 17c-1 1 -2 8 -3 16c-2 25 0 23 -21 23h-18l1 -12c1 -7 2 -23 3 -34s2 -21 3 -22s24 -8 51 -15l50 -13l44 12c25 7 48 13 51 14l6 2l6 64c3 35 6 67 7 73l1 11h-95
c-80 0 -94 2 -96 4c-2 4 -5 28 -5 49v16l100 1c93 0 101 1 102 4c1 2 1 9 2 18l1 16h-124h-124l1 -8z" />
    <glyph glyph-name="opera-1" unicode="&#x683;" horiz-adv-x="464" arabic-form="medial" 
d="M192 437c51 8 107 0 151 -23c63 -33 105 -94 118 -170c4 -22 4 -69 1 -89c-8 -48 -25 -90 -55 -127c-65 -81 -178 -107 -272 -62c-68 32 -118 100 -132 181c-4 21 -4 69 -1 91c5 33 17 68 32 93c35 58 90 95 158 106zM204 423c-64 -10 -111 -36 -144 -81
c-29 -40 -44 -88 -44 -147c0 -45 9 -80 28 -118c44 -84 128 -128 220 -114c47 7 85 28 120 65c28 29 46 63 57 106c7 27 9 76 4 106c-16 99 -83 167 -179 181c-17 3 -50 4 -62 2zM207 385c16 5 42 4 56 -3c29 -13 46 -46 55 -103c5 -31 5 -133 0 -168
c-7 -47 -19 -76 -38 -94c-15 -14 -28 -19 -49 -19c-50 0 -79 43 -87 128c-3 30 -3 111 0 139c7 70 27 109 63 120zM212 370c-25 -7 -40 -34 -49 -84c-4 -25 -5 -146 -1 -174c7 -50 21 -79 42 -91c13 -8 35 -9 50 -3c26 11 40 42 48 100c3 25 3 129 0 153
c-8 57 -23 87 -49 97c-11 4 -30 5 -41 2z" />
    <glyph glyph-name="lastfm-1" unicode="&#x684;" arabic-form="isolated" 
d="M96 326c19 5 52 5 70 1c26 -6 51 -23 69 -45s30 -47 53 -105c14 -37 21 -48 33 -55c22 -13 64 -16 89 -6c13 5 17 8 15 15s-12 11 -54 25c-20 6 -40 15 -46 18c-15 9 -29 23 -35 36c-5 10 -5 13 -5 32s1 22 6 33c3 7 10 16 17 23c47 46 140 38 175 -15c4 -6 9 -16 11 -21
c2 -8 3 -8 0 -11s-52 -19 -58 -19c-2 0 -5 3 -8 8c-7 13 -19 19 -39 19c-13 0 -17 -1 -25 -5c-7 -4 -9 -6 -10 -11c-1 -6 0 -8 7 -11c4 -2 22 -8 40 -14c54 -18 75 -32 88 -58c6 -12 6 -15 6 -32c0 -16 0 -21 -5 -31c-12 -25 -41 -44 -77 -52c-24 -5 -70 -3 -94 4
c-39 12 -61 29 -77 60c-5 10 -16 34 -23 52c-23 60 -40 85 -61 95c-8 4 -12 5 -27 5c-34 0 -51 -15 -58 -49c-9 -43 2 -80 29 -95c10 -5 13 -6 30 -6c23 0 34 3 51 17c7 5 12 10 13 10c3 0 9 -7 20 -30c12 -23 12 -24 9 -30c-12 -23 -45 -36 -91 -36c-27 0 -40 3 -61 13
c-26 12 -45 32 -59 62c-20 42 -18 100 4 147c15 31 42 53 78 62zM98 310c-31 -8 -52 -26 -66 -54c-10 -20 -13 -38 -15 -67c-1 -27 2 -45 13 -69c15 -30 44 -53 76 -60c7 -1 21 -2 36 -1c31 1 47 6 60 17l8 7l-8 16l-8 17l-10 -7c-17 -11 -28 -14 -52 -14c-20 0 -21 1 -34 7
c-29 14 -44 42 -44 81c0 34 10 64 26 78c13 11 28 16 50 16c48 1 72 -24 106 -114c20 -54 34 -75 60 -88c22 -11 39 -15 71 -16c33 -1 51 1 73 12c32 15 46 44 37 75c-7 25 -28 40 -84 58c-33 11 -49 18 -53 26c-4 7 -1 23 5 30c10 10 24 15 44 15c22 0 35 -5 46 -17l7 -8
l18 5l18 6l-5 7c-2 4 -8 13 -14 18c-20 19 -45 27 -77 25c-50 -3 -82 -30 -82 -71c0 -23 12 -41 36 -54c6 -3 27 -11 46 -17c49 -16 62 -25 59 -44c-3 -21 -34 -33 -78 -30c-22 1 -32 4 -48 12c-18 9 -23 17 -49 81c-21 53 -32 72 -53 93c-25 25 -45 33 -80 33
c-13 0 -25 -2 -35 -4z" />
    <glyph glyph-name="deviantart-1" unicode="&#x67e;" horiz-adv-x="312" arabic-form="isolated" 
d="M209 435c6 5 6 5 52 5c33 0 47 0 49 -2s2 -16 2 -49v-46l-43 -83c-24 -46 -43 -83 -43 -83s19 -1 41 -1c29 0 41 0 43 -2c3 -3 3 -129 0 -132c-2 -2 -22 -2 -77 -2c-74 0 -74 0 -79 -4c-3 -2 -14 -21 -24 -41s-22 -39 -26 -43l-7 -8h-45c-25 0 -47 0 -49 1
c-3 1 -3 8 -3 50v48l42 80c23 44 42 82 42 83s-16 2 -39 2c-21 0 -40 0 -42 1c-3 1 -3 9 -3 67s0 66 3 67c2 1 36 1 76 1c70 0 73 0 78 4c3 2 14 21 25 43c12 23 24 41 27 44zM217 420c-2 -2 -13 -22 -24 -43c-16 -31 -21 -38 -28 -43l-8 -6h-70h-71v-52v-52h38h38l5 -6
c3 -3 5 -8 5 -10s-19 -42 -43 -87l-43 -82v-40v-39h38c33 0 38 0 40 3c1 2 12 21 23 42c17 31 22 40 29 45l8 6h71h71v52v52h-38h-38l-5 6c-3 3 -5 6 -6 8s18 40 43 88l44 85v38v39h-38c-37 0 -37 0 -41 -4z" />
    <glyph glyph-name="twitch-1" unicode="&#x691;" horiz-adv-x="474" arabic-form="final" 
d="M31 433l3 7h218c167 0 218 0 220 -2s2 -38 2 -152v-150l-64 -64l-65 -64h-47h-47l-32 -32l-32 -32h-34c-26 0 -35 1 -37 3c-1 2 -2 14 -2 31l-1 29l-56 1l-56 1v172l-1 171l14 37c8 20 15 40 17 44zM39 410c-3 -8 -9 -26 -14 -38l-9 -22v-163v-163h52c37 0 52 -1 56 -3
c5 -3 5 -3 6 -32v-29h26h25l32 32l32 32h47h47l60 60l59 59v141v140h-207h-207zM74 396c3 3 353 3 356 0c2 -2 2 -32 2 -121v-118l-39 -39l-38 -38h-58h-58l-31 -31c-17 -17 -32 -31 -34 -31c-7 0 -8 4 -8 33v29h-45c-32 0 -45 0 -47 2c-3 3 -3 311 0 314zM88 239v-143h45
c32 0 45 0 47 -2s2 -11 2 -26v-23l26 26l25 25h57h57l35 33l34 33v110v110h-164h-164v-143zM188 310c2 4 5 5 29 4l26 -1v-69v-69l-26 -1c-23 0 -26 0 -28 3c-3 4 -4 127 -1 133zM303 313c2 2 52 2 55 -1s3 -133 0 -136s-51 -3 -54 0c-2 2 -2 20 -2 69c0 36 0 67 1 68z
M202 244v-54h13h13v54v54h-13h-13v-54zM318 244v-54h13h13v54v54h-13h-13v-54z" />
    <glyph glyph-name="internet-explorer-1" unicode="&#x6a6;" arabic-form="isolated" 
d="M360 428c22 5 62 4 77 -1c14 -5 31 -22 37 -38c4 -10 5 -15 5 -37s-1 -28 -6 -44l-5 -19l6 -12c15 -30 23 -70 22 -104c0 -11 -2 -22 -3 -23c-1 -2 -38 -2 -152 -2c-100 0 -151 -1 -152 -2c-2 -3 4 -23 9 -33c5 -11 20 -26 31 -32c27 -16 60 -17 88 -3c10 5 25 21 31 30
c2 4 6 7 7 8s29 2 63 2c68 0 67 0 65 -12c-1 -3 -4 -13 -8 -21c-25 -54 -72 -97 -130 -118c-47 -17 -105 -16 -153 2c-17 6 -20 7 -25 5c-42 -17 -68 -24 -94 -22c-48 3 -73 31 -73 80c0 62 36 148 92 220l16 21l-12 -13c-7 -7 -17 -19 -23 -25c-8 -10 -11 -11 -14 -10
c-6 2 -8 6 -4 19c17 59 61 111 118 138c30 14 52 20 85 21c25 1 29 2 44 8c20 8 34 12 58 17zM366 413c-20 -4 -43 -10 -59 -17c-13 -6 -17 -7 -44 -8c-23 -1 -34 -3 -48 -7c-37 -11 -74 -34 -97 -59c-10 -11 -34 -45 -34 -49c0 -1 5 3 11 9c25 23 68 51 78 50
c3 0 5 -3 5 -6c1 -4 -4 -10 -24 -30c-14 -14 -30 -31 -36 -38c-57 -67 -97 -153 -101 -217c-1 -24 2 -42 11 -53c7 -9 24 -18 36 -19l9 -1l-8 3c-11 4 -22 16 -27 28c-9 21 -2 64 17 101c5 11 7 13 11 13s6 -3 16 -22c18 -36 41 -64 71 -85c7 -5 13 -10 13 -11s1 -2 4 -2
c2 0 11 -2 18 -5c84 -38 192 -10 249 65c11 15 27 42 27 47c0 2 -11 2 -50 2c-49 0 -50 0 -53 -4c-2 -2 -9 -11 -15 -17c-31 -31 -80 -38 -120 -17c-14 8 -34 28 -42 42c-12 22 -16 52 -8 56c3 1 54 2 154 2h150v16c0 32 -8 62 -23 94c-18 39 -59 77 -100 96
c-11 5 -13 7 -13 11c0 6 8 11 33 18c29 9 61 6 74 -5c4 -3 3 -2 1 2c-4 7 -17 16 -28 18c-13 3 -41 2 -58 -1zM401 388c-6 -1 -14 -3 -19 -4c-10 -3 -12 -1 15 -18c9 -6 24 -19 34 -29s19 -18 20 -17c3 4 5 30 3 38c-1 5 -2 9 -2 10s-3 5 -6 9c-9 10 -25 14 -45 11zM247 304
c12 3 37 2 50 -1c24 -6 44 -21 57 -42c12 -19 20 -49 14 -55c-2 -2 -26 -2 -97 -2c-107 0 -100 -1 -98 16c5 39 36 75 74 84zM246 286c-6 -2 -15 -6 -19 -8c-12 -7 -28 -27 -33 -39c-8 -21 -16 -19 78 -19h82l-1 6c-3 12 -14 31 -23 40c-5 5 -16 12 -23 16
c-12 6 -16 6 -32 7c-14 0 -21 0 -29 -3zM60 73c-8 -21 -11 -35 -10 -52c1 -14 2 -18 7 -24c7 -9 10 -10 23 -13c12 -2 30 0 49 6l13 4l-10 8c-22 18 -51 52 -61 74c-2 4 -4 8 -5 8s-4 -5 -6 -11z" />
    <glyph glyph-name="vimeo-1" unicode="&#x6a9;" arabic-form="final" 
d="M388 400c13 3 34 3 46 0c41 -9 64 -48 61 -104c-3 -61 -75 -183 -153 -262c-32 -32 -60 -52 -86 -62c-14 -5 -41 -6 -52 -2c-19 8 -33 22 -46 47c-9 18 -14 35 -31 98c-20 75 -28 99 -36 119c-9 22 -16 32 -22 32c-2 0 -12 -5 -22 -11s-18 -11 -20 -10
c-4 1 -27 33 -27 37c0 1 13 15 29 30c76 70 98 84 129 84c30 0 50 -18 62 -58c2 -7 7 -32 10 -55c13 -88 27 -140 40 -148c3 -2 6 0 14 8c24 24 53 78 57 108c2 12 -3 21 -11 25c-9 5 -18 5 -34 0s-17 -5 -20 0c-2 3 -1 7 3 19c19 58 58 95 109 105zM382 382
c-19 -5 -32 -13 -47 -26c-16 -14 -33 -40 -38 -57c-1 -4 -1 -5 11 -4c34 3 54 -17 48 -51c-7 -38 -44 -103 -69 -120c-17 -12 -27 -8 -38 13c-12 24 -24 68 -35 142c-6 42 -9 59 -16 72c-10 21 -22 29 -41 29c-21 0 -47 -15 -89 -54c-14 -13 -30 -28 -37 -34l-12 -11l6 -9
c3 -5 6 -8 6 -8l10 6c27 19 41 16 56 -11c12 -22 19 -44 50 -157c19 -70 27 -89 47 -107c19 -17 42 -17 74 0c21 12 34 23 65 54c78 78 147 198 147 254c0 28 -9 55 -21 67c-16 15 -48 20 -77 12z" />
    <glyph glyph-name="lanyrd-1" unicode="&#x6a6;" horiz-adv-x="495" arabic-form="medial" 
d="M66 437c9 2 41 3 181 3c183 0 181 0 201 -10c21 -11 41 -37 46 -61c2 -7 1 -64 1 -183v-173l-5 -11c-9 -23 -29 -43 -52 -52l-11 -5h-179h-179l-12 5c-23 9 -43 29 -52 52l-4 11l-1 173c0 119 0 176 2 183c7 32 32 59 64 68zM70 421c-21 -6 -38 -21 -48 -41l-5 -11v-177
v-177l5 -11c7 -16 19 -28 35 -36l14 -7h177h177l11 5c16 7 28 20 36 36l7 13v177v177l-7 13c-8 16 -20 29 -36 36l-11 5h-173c-133 0 -175 0 -182 -2zM126 400c18 6 37 7 45 3c3 -1 7 -4 9 -7s24 -67 48 -143s45 -138 45 -139s26 7 58 18s65 21 73 23c14 3 15 3 22 0
c5 -2 9 -6 12 -12c5 -11 12 -44 12 -58c0 -9 -2 -12 -7 -18c-10 -11 -23 -17 -100 -42c-122 -40 -135 -43 -149 -39c-8 2 -18 11 -22 20c-1 3 -20 55 -41 117s-45 135 -55 164s-19 56 -20 61c-3 10 -1 20 6 26c5 4 36 17 64 26zM134 386c-26 -9 -61 -23 -63 -26
c-2 -4 -3 -1 69 -212c24 -72 45 -134 47 -137c5 -9 12 -12 26 -9c22 5 183 56 203 65s21 12 14 46c-4 18 -8 29 -12 29c-5 0 -39 -11 -92 -29s-61 -20 -63 -17c-2 2 -23 66 -47 142s-46 142 -47 146c-3 6 -4 6 -14 6c-6 0 -15 -2 -21 -4z" />
    <glyph glyph-name="codepen-1" unicode="&#x67b;" horiz-adv-x="480" arabic-form="initial" 
d="M221 438c9 3 19 3 27 0c10 -3 209 -137 219 -147c5 -5 10 -12 11 -17c2 -6 2 -34 2 -88l-1 -79l-6 -10c-6 -9 -15 -16 -106 -77c-55 -37 -105 -68 -111 -71c-9 -4 -12 -5 -21 -4c-6 1 -13 2 -16 4s-51 33 -106 70c-102 69 -107 72 -111 87c-1 4 -2 41 -2 86v80l6 10
c5 10 9 13 107 82c56 39 105 73 108 74zM222 421c-6 -3 -162 -112 -188 -131c-19 -14 -19 -9 -18 -101c1 -78 1 -81 5 -86s187 -130 204 -139c16 -8 14 -9 127 66c88 58 104 69 108 76c4 8 5 9 4 87c-1 76 -1 79 -5 84c-2 3 -51 38 -108 76c-114 76 -114 76 -129 68z
M256 376c1 1 4 2 5 2c3 0 140 -96 146 -102c3 -3 4 -5 2 -8c-4 -6 -76 -54 -80 -53c-2 0 -19 12 -39 26l-36 26v53c0 39 0 54 2 56zM137 326c57 40 71 49 76 49h6l1 -53v-53l-38 -27c-24 -17 -39 -26 -41 -25s-19 12 -39 25c-32 22 -37 26 -36 30c0 4 14 14 71 54zM146 313
c-30 -21 -55 -39 -56 -40s10 -9 25 -20l27 -19l31 21l31 22v37c0 21 -1 38 -2 38s-26 -18 -56 -39zM270 313v-38l30 -22l30 -21l27 18c15 10 27 20 27 21c0 2 -109 81 -112 81c-1 0 -2 -18 -2 -39zM203 216c13 10 26 18 28 18s17 -9 33 -19c28 -18 30 -22 26 -28
c-3 -5 -51 -35 -54 -34c-2 0 -16 9 -31 19c-23 15 -28 19 -27 23c0 3 9 10 25 21zM48 230c4 4 9 2 33 -15c32 -22 32 -22 0 -44c-14 -10 -25 -17 -27 -17c-7 0 -8 5 -8 39c0 24 0 35 2 37zM393 214c14 10 27 18 29 18c7 0 8 -4 8 -39c0 -29 0 -35 -3 -38c-2 -2 -4 -3 -5 -3
s-14 8 -29 18c-23 15 -28 19 -27 23c0 3 9 9 27 21zM216 206c-8 -6 -14 -11 -14 -12s8 -7 18 -13l18 -11l15 10c8 6 15 11 15 12s-34 24 -36 24c-1 0 -8 -4 -16 -10zM62 193c0 -12 1 -15 3 -14c7 4 19 14 19 14c0 1 -20 15 -21 15s-1 -7 -1 -15zM401 201
c-6 -4 -10 -8 -10 -9s2 -3 6 -5s8 -6 11 -8l6 -3v16c0 9 -1 16 -2 16s-5 -3 -11 -7zM105 146c20 14 37 26 38 26s19 -11 40 -25l37 -26v-54c-1 -54 -1 -54 -5 -55c-3 0 -26 15 -75 48c-39 26 -72 49 -73 51s-2 5 0 7c1 2 18 14 38 28zM293 147c19 13 35 23 36 23
c4 0 79 -52 80 -55c1 -2 0 -5 -2 -7c-8 -8 -141 -96 -145 -96c-2 0 -5 2 -6 4c-3 6 -3 100 0 104c1 2 18 14 37 27zM116 134c-21 -15 -27 -19 -25 -21s104 -72 111 -76c2 -1 2 7 2 37v39l-28 19c-15 10 -30 19 -31 20s-14 -7 -29 -18zM300 132l-30 -20v-38
c0 -30 0 -38 2 -37c3 1 110 72 113 75c1 1 -39 29 -54 38c-1 1 -15 -7 -31 -18z" />
    <glyph glyph-name="facebook-1" unicode="&#x680;" horiz-adv-x="256" arabic-form="initial" 
d="M148 437c20 4 103 4 106 1c2 -2 2 -16 2 -52c0 -47 0 -50 -4 -52c-2 -1 -18 -2 -38 -2h-34l-7 -7c-6 -6 -7 -8 -7 -21v-14h40c24 0 42 -1 44 -2s4 -4 4 -6c0 -9 -14 -93 -16 -95s-11 -3 -37 -3h-35v-118c0 -89 0 -118 -2 -120c-3 -3 -99 -3 -102 0c-2 2 -2 31 -2 120v118
h-28c-19 0 -28 0 -30 2s-2 16 -2 51c0 46 0 49 4 51c2 1 16 2 30 2h26v24c0 32 4 53 13 71c14 29 38 45 75 52zM150 421c-24 -5 -36 -11 -48 -23c-20 -20 -26 -41 -26 -90c0 -20 0 -30 -2 -32s-11 -2 -30 -2h-28v-37v-37h28c19 0 28 0 30 -2s2 -31 2 -120v-118h37h37v118
c0 89 0 118 2 120s13 2 38 2h35l6 34c3 18 5 34 5 36c0 3 -4 4 -41 4c-34 0 -41 1 -43 3s-3 10 -2 25c1 20 1 22 6 29c9 14 18 17 54 17h30v38v38h-38c-23 0 -44 -1 -52 -3z" />
    <glyph glyph-name="trello-1" unicode="&#x698;" arabic-form="final" 
d="M17 438c2 1 106 2 230 2c216 0 226 0 233 -4c4 -2 9 -7 11 -11l5 -8v-225c0 -210 -1 -226 -4 -232c-2 -4 -6 -9 -9 -11c-6 -4 -6 -4 -233 -5c-253 -1 -238 -1 -246 13c-4 6 -4 14 -4 235v230l6 7c4 4 9 8 11 9zM19 420c-3 -3 -3 -21 -3 -228c0 -215 0 -226 4 -229
c3 -3 22 -3 228 -3c222 0 224 0 228 4s4 7 4 228v223l-5 5l-4 4h-224c-215 0 -225 0 -228 -4zM55 385l5 5h82h82l6 -6l6 -6v-164c0 -176 0 -173 -10 -178c-2 -1 -33 -2 -85 -2h-81l-5 5l-6 5v168v168zM267 387c3 2 17 3 85 3h82l5 -5l6 -5l1 -104c0 -76 0 -107 -2 -111
c-5 -12 -3 -11 -92 -11h-82l-5 5l-6 5l-1 104c-1 110 0 113 9 119zM64 212v-162h78l77 1l1 161v162h-78h-78v-162zM274 272v-102h78l77 1l1 101v102h-78h-78v-102z" />
    <glyph glyph-name="facebook-2" unicode="&#x680;" arabic-form="medial" 
d="M34 437c8 3 33 3 213 3c231 0 216 1 233 -16s16 -3 16 -232s1 -215 -16 -232c-15 -15 -19 -16 -92 -16c-59 0 -62 0 -64 4c-3 6 -3 201 0 204c2 2 12 2 32 2c16 0 30 1 30 2s2 14 5 29s5 28 5 28s-16 1 -35 1c-41 0 -39 -1 -39 21c0 19 6 31 18 37c8 4 11 4 33 4h25v29
v29l-36 -1c-39 -1 -50 -3 -65 -12c-9 -6 -17 -16 -21 -27c-2 -4 -3 -21 -4 -42c-1 -28 -2 -34 -4 -36c-2 -1 -14 -2 -27 -2h-23v-30l1 -29l25 -1c24 -1 24 0 26 -5c1 -3 2 -42 2 -103c0 -84 -1 -98 -4 -100c-2 -1 -47 -2 -112 -2c-126 0 -124 0 -140 16
c-17 17 -16 2 -16 232s-1 215 16 232c5 5 13 11 18 13zM36 420c-5 -3 -11 -8 -14 -13l-5 -8l-1 -205v-205l4 -8c3 -5 8 -12 13 -15l8 -5l106 -1h107v89v89h-22c-32 0 -30 -3 -30 45c0 23 1 41 2 43c2 3 5 4 26 4h23l2 24c2 30 4 42 12 57c16 30 41 39 105 39
c35 0 38 0 40 -4c3 -6 3 -81 0 -84c-2 -2 -13 -2 -33 -2h-29l-6 -6c-5 -5 -6 -8 -6 -15v-9h36c33 0 36 -1 38 -4c2 -4 -10 -81 -14 -85c-1 -1 -14 -3 -31 -3h-29v-89v-89h59l58 1l8 5c5 3 10 10 13 15l4 8v205l-1 205l-5 8c-3 5 -9 10 -14 13c-9 4 -9 4 -212 4h-203l-9 -4z
" />
    <glyph glyph-name="css3-1" unicode="&#x67b;" horiz-adv-x="492" arabic-form="medial" 
d="M74 406l4 4h203c225 0 211 1 211 -13c0 -9 -69 -356 -72 -361c-2 -3 -26 -12 -113 -41l-111 -37l-82 31c-45 17 -87 34 -96 37c-11 4 -17 8 -18 11c-2 6 16 98 21 103c3 3 10 4 42 4c51 1 52 -1 47 -29c-1 -7 -2 -13 -1 -14c2 -2 100 -39 104 -39c5 0 121 38 124 40
c2 2 15 67 15 74c0 3 -9 4 -159 4h-159l-3 5c-3 5 -3 7 4 43c4 21 8 42 10 44l3 4h162h162l1 4c1 2 2 11 4 18l3 14h-158h-158l-5 5l-5 4l7 40c6 32 9 41 13 45zM83 390c-3 -16 -11 -57 -11 -59s28 -3 159 -3c151 0 159 -1 162 -4c2 -2 3 -5 3 -7c0 -9 -9 -48 -12 -52l-3 -4
l-162 -1l-162 -1l-5 -28c-3 -15 -6 -29 -6 -31c0 -3 9 -4 158 -4c155 0 158 0 162 -4c2 -2 4 -6 4 -8s-4 -23 -9 -47c-7 -34 -9 -45 -12 -47c-2 -2 -34 -13 -70 -25l-66 -21l-58 21c-65 24 -66 26 -63 40c1 4 2 11 3 15l1 8h-32c-31 0 -31 0 -32 -4c-7 -29 -16 -79 -15 -80
c3 -2 176 -68 179 -68c2 0 50 16 107 35l104 34l33 167c18 92 34 170 35 174l1 8h-196h-196l-1 -4z" />
    <glyph glyph-name="flattr-1" unicode="&#x67a;" arabic-form="final" 
d="M151 439c3 0 73 1 156 1c156 0 155 0 155 -8c0 -2 -45 -48 -100 -102c-89 -87 -101 -99 -107 -100c-5 0 -8 1 -11 4c-4 4 -4 7 -4 43v38l-31 -2c-35 -1 -47 -5 -59 -15c-4 -4 -10 -10 -12 -14c-9 -17 -10 -31 -10 -112v-77l-57 -57c-31 -31 -58 -57 -60 -58s-4 -1 -7 0
c-4 2 -5 3 -4 155c1 146 1 153 5 170c9 38 21 63 42 85c26 27 59 43 104 49zM143 421c-50 -8 -87 -33 -106 -73c-10 -21 -16 -42 -19 -68c-1 -10 -2 -70 -2 -146v-129l48 48l48 48v75c0 60 0 77 3 89c7 33 20 49 49 59c17 6 85 9 89 4c2 -2 3 -15 3 -41l1 -38l89 87l89 88
h-138c-100 0 -142 -1 -154 -3zM426 348c32 32 60 58 61 58s4 -2 6 -3c3 -2 3 -11 2 -154c-1 -146 -1 -152 -5 -170c-11 -49 -32 -83 -65 -105c-15 -10 -30 -18 -53 -24l-19 -5l-157 -1c-162 -1 -162 0 -162 8c0 2 45 49 100 104c109 109 106 106 117 95c5 -5 5 -5 5 -43v-39
l30 2c20 1 34 2 41 4c13 4 25 14 31 25c9 17 10 30 10 112v77zM431 331l-47 -48l-1 -81c-1 -77 -1 -82 -5 -94c-11 -33 -30 -48 -68 -52c-28 -3 -65 -2 -68 1c-1 2 -3 17 -3 41v38l-89 -88l-89 -88l145 1c143 1 145 1 162 5c65 17 101 62 110 140c1 12 1 65 1 146v126
l-48 -47z" />
    <glyph glyph-name="forrst-1" unicode="&#x67a;" horiz-adv-x="460" arabic-form="medial" 
d="M222 430c2 2 5 4 8 4s6 -2 8 -4c5 -6 222 -470 222 -475c0 -11 1 -11 -112 -11c-102 0 -103 0 -107 4c-3 4 -5 8 -5 31c0 18 0 28 2 31c2 4 14 10 43 24l39 20l-1 6c-3 14 -1 15 -34 -1c-37 -18 -37 -18 -43 -13c-4 3 -5 5 -6 18c0 9 0 17 2 20c1 3 12 11 24 18
c18 12 21 14 20 18c-1 8 -3 8 -16 0c-14 -9 -20 -10 -25 -4c-3 3 -4 8 -5 21v17h-6h-6v-39v-39l-5 -4c-7 -5 -10 -4 -26 7c-7 5 -12 9 -13 9s-2 -4 -3 -9l-2 -8l23 -17c13 -9 23 -18 24 -20s2 -21 2 -43c0 -36 0 -39 -4 -43s-7 -4 -108 -4c-113 0 -112 0 -112 11
c0 5 217 469 222 475zM124 188c-58 -123 -106 -225 -106 -226s43 -2 95 -2h95v33v33l-22 17c-12 9 -24 18 -26 20c-2 3 -2 5 1 19c4 18 9 26 16 26c2 0 9 -4 16 -9s12 -9 13 -9s2 16 2 36c0 39 0 40 11 43c8 2 27 0 31 -4c2 -2 3 -8 4 -18l1 -15l9 6c20 14 26 12 32 -8
c2 -8 4 -15 4 -18c-1 -5 -10 -12 -34 -27c-12 -7 -12 -7 -12 -15c0 -4 0 -8 1 -8s15 7 32 15c27 14 31 16 36 14s7 -4 9 -12c4 -18 5 -30 2 -34c-2 -2 -21 -12 -42 -22l-38 -19v-22v-22h94c52 0 94 1 94 2c-4 9 -211 450 -212 450s-48 -101 -106 -224z" />
    <glyph glyph-name="kickstarter-1" unicode="&#x6a6;" horiz-adv-x="383" arabic-form="initial" 
d="M62 437c14 3 17 3 30 1c25 -5 45 -21 56 -44l7 -13l1 -43l1 -44l46 61c25 34 49 64 53 67s13 9 19 12c10 5 15 5 31 5c17 0 20 0 32 -6c17 -8 30 -22 38 -39c6 -12 7 -15 7 -32c0 -16 -1 -21 -5 -30c-3 -6 -27 -40 -54 -75l-48 -65l48 -64c27 -36 51 -70 54 -76
c4 -9 5 -14 5 -30c0 -17 -1 -20 -7 -32c-14 -30 -44 -48 -75 -45c-17 2 -25 4 -39 13c-10 7 -17 16 -58 70l-47 62l-1 -44c-1 -42 -1 -43 -7 -55c-14 -31 -50 -50 -83 -45c-26 4 -47 21 -59 46l-6 13l-1 181c0 117 1 184 2 190c6 30 30 54 60 61zM64 421
c-20 -6 -35 -18 -44 -37c-3 -6 -3 -23 -3 -192v-185l6 -13c24 -44 87 -43 110 1l6 10l1 56c1 38 1 57 3 59c6 6 11 0 62 -67c28 -37 54 -71 58 -75c11 -11 25 -17 43 -17s29 4 42 16c17 16 24 41 17 64c-3 9 -14 25 -56 80c-28 38 -51 69 -51 71s22 33 49 69s52 70 55 75
c4 7 5 12 5 26c0 15 -1 18 -6 27c-6 12 -17 23 -29 29c-7 4 -12 5 -26 5c-15 0 -18 0 -27 -5c-6 -3 -14 -9 -18 -13s-29 -38 -57 -75c-34 -45 -52 -68 -55 -68c-9 -1 -9 3 -9 60v53l-6 12c-13 27 -43 42 -70 34z" />
    <glyph glyph-name="envelope-1" unicode="&#x6b3;" arabic-form="medial" 
d="M3 358c3 3 488 3 491 0s3 -329 0 -332s-488 -3 -491 0s-3 329 0 332zM37 336c41 -38 210 -191 211 -191s218 197 218 198c0 0 -98 1 -218 1h-219zM16 186v-146h232h232v146c0 80 0 146 -1 146s-53 -47 -114 -103s-112 -103 -114 -104s-4 -1 -6 0s-53 49 -115 105
s-112 102 -113 102s-1 -66 -1 -146z" />
    <glyph glyph-name="path-1" unicode="&#x686;" horiz-adv-x="455" arabic-form="isolated" 
d="M192 439c3 1 21 0 40 0c27 -1 38 -2 55 -6c106 -25 174 -102 167 -190c-7 -82 -47 -133 -120 -156c-16 -5 -20 -6 -55 -6h-37l-1 -35c-1 -31 -2 -37 -6 -47c-9 -22 -28 -41 -49 -49c-19 -7 -31 -7 -63 -1c-43 9 -45 9 -35 55c4 21 6 25 11 30c3 3 8 6 11 6
c4 0 24 -3 39 -7l4 -1v130c0 139 0 139 10 144c2 1 18 2 35 2c30 0 32 0 37 -5l5 -5l1 -65v-65l10 -1c5 -1 18 -2 29 -2c50 1 79 24 87 70c8 48 -16 84 -74 107c-38 15 -88 16 -129 2c-33 -11 -58 -31 -70 -56c-7 -15 -8 -15 -8 -38c0 -27 3 -36 17 -56
c13 -19 12 -21 -11 -45c-30 -31 -39 -31 -57 -7c-21 29 -30 53 -34 90c-6 58 11 103 53 143c35 34 80 55 138 64zM194 423c-75 -10 -139 -51 -165 -107c-10 -22 -12 -36 -12 -65c0 -40 7 -64 26 -92c15 -21 13 -21 34 -1l19 17l-8 13c-12 19 -17 31 -18 55c-2 33 6 56 28 79
c32 33 79 49 136 47c33 -1 51 -5 78 -18c33 -16 53 -34 66 -61c6 -12 6 -14 6 -36c0 -53 -23 -87 -68 -100c-22 -6 -79 -5 -88 2c-2 2 -3 18 -3 69v67h-27l-28 -1v-133l-1 -133l-4 -4c-5 -6 -7 -6 -33 -1c-17 4 -22 4 -23 2c-2 -4 -10 -50 -9 -51s11 -3 25 -6
c31 -6 43 -6 61 3c15 7 25 18 33 34c5 11 5 13 6 53c1 48 0 46 18 43c22 -3 60 -2 78 2c33 8 64 27 82 49c32 39 44 105 28 152c-25 73 -112 124 -208 123c-13 0 -26 -1 -29 -1z" />
    <glyph glyph-name="bootstrap-1" unicode="&#x671;" horiz-adv-x="494" arabic-form="final" 
d="M52 437c6 2 49 3 194 3c164 0 188 0 197 -3c20 -6 36 -20 45 -40l6 -12v-193v-193l-5 -11c-7 -16 -20 -28 -36 -36l-13 -7h-193h-193l-12 6c-15 7 -29 20 -36 36l-6 12v193v193l6 12c9 20 25 33 46 40zM52 420c-7 -2 -13 -6 -20 -13c-18 -18 -17 -5 -17 -215
s-1 -197 17 -215s5 -18 219 -17l187 1l11 6c12 6 18 13 25 26l4 8l1 187c1 214 1 201 -17 219s-5 17 -216 17c-166 0 -185 -1 -194 -4zM118 348c2 2 21 3 87 2c82 -1 85 -2 98 -6c41 -14 67 -48 64 -89c-1 -20 -7 -33 -18 -44l-8 -8l9 -7c19 -13 29 -39 29 -70
c0 -46 -21 -74 -67 -87c-10 -3 -24 -3 -102 -4c-68 -1 -90 -1 -92 1s-3 25 -3 156c0 120 1 154 3 156zM131 192v-142h83c74 1 85 2 95 5c34 11 50 28 54 57c2 15 0 36 -6 50c-5 12 -20 26 -32 30c-5 1 -9 4 -10 5c-3 4 0 11 7 14c10 4 18 13 23 22c6 13 8 36 2 51
c-5 14 -22 32 -35 39c-19 9 -30 11 -108 11h-73v-142zM193 288c2 4 4 4 33 4c33 0 40 -1 50 -12c15 -16 10 -48 -10 -58c-8 -4 -13 -4 -38 -5c-39 -1 -37 -4 -37 37c0 17 1 32 2 34zM207 254l1 -21l10 -1c6 0 17 0 25 1c13 1 15 2 20 7c4 4 6 8 6 14c0 18 -7 22 -39 22h-23
v-22zM193 174c2 4 5 4 36 4c38 0 45 -2 55 -11c16 -14 19 -37 9 -57c-5 -9 -7 -12 -17 -17c-11 -6 -12 -6 -44 -7c-29 -1 -34 0 -37 3c-4 3 -4 6 -4 42c0 23 1 41 2 43zM207 132l1 -29h27c30 0 37 3 44 14c5 9 5 24 0 33c-6 10 -14 12 -45 12h-27v-30z" />
    <glyph glyph-name="dropbox-1" unicode="&#x67e;" horiz-adv-x="484" arabic-form="medial" 
d="M90 392c29 19 55 34 57 34c6 0 9 -2 55 -42c21 -18 38 -34 39 -34s22 17 47 37s47 37 50 38s6 0 9 -1c9 -4 125 -79 131 -84c4 -3 6 -7 6 -11c0 -8 -3 -11 -50 -49c-18 -15 -32 -27 -32 -27s18 -15 40 -34c26 -22 40 -36 41 -39c3 -11 0 -14 -43 -40l-41 -24l-1 -31
c-1 -27 -2 -31 -5 -35c-2 -2 -35 -25 -74 -50c-56 -36 -72 -46 -77 -46s-21 10 -78 47c-39 26 -74 49 -75 51c-2 2 -2 13 -3 34l-1 31l-40 23c-43 25 -48 30 -44 40c1 3 16 16 44 37c23 18 42 32 42 33s-19 16 -42 33s-43 33 -44 36c-4 9 1 15 19 27c9 6 41 27 70 46z
M82 368c-36 -23 -66 -43 -66 -43c-1 -1 84 -64 86 -64s126 77 126 79c0 1 -48 42 -75 64l-6 6zM299 376c-23 -19 -41 -35 -41 -36s121 -73 128 -75c2 -1 15 9 41 30c21 17 39 32 39 33s-79 53 -118 77l-7 5zM239 328c-1 -1 -28 -18 -61 -39c-45 -29 -60 -38 -58 -40
c1 -1 23 -15 48 -31s51 -33 59 -38l15 -10l64 41c35 22 64 41 64 42s-126 77 -129 77zM322 202c-35 -22 -63 -41 -63 -42c0 -2 77 -60 80 -60s127 74 127 76c0 3 -76 66 -79 66c-1 0 -30 -18 -65 -40zM59 208c-23 -17 -41 -31 -41 -32c0 -2 124 -75 128 -75c3 0 83 59 81 60
c-6 5 -124 79 -125 79s-20 -15 -43 -32zM240 150c-1 -2 -76 -59 -85 -64c-8 -5 -10 -5 -32 8c-9 5 -17 10 -18 10s-1 -10 -1 -22v-22l68 -45c38 -25 70 -45 71 -45s33 21 70 45l67 44v23v22l-9 -5c-22 -13 -32 -17 -36 -16s-85 61 -89 66c-3 3 -5 3 -6 1z" />
    <glyph glyph-name="rss-1" unicode="&#x68c;" horiz-adv-x="495" arabic-form="isolated" 
d="M4 438c2 2 8 2 28 1c107 -5 205 -42 290 -112c89 -74 151 -185 168 -302c5 -32 6 -74 3 -78c-2 -3 -10 -3 -51 -3c-35 0 -49 0 -51 2c-1 1 -2 8 -2 15s-1 22 -2 33c-18 175 -153 314 -327 337c-13 2 -30 3 -39 3s-17 1 -18 2c-3 3 -3 98 1 102zM17 387v-37h11
c17 0 54 -6 79 -12c73 -18 134 -53 186 -107c33 -34 52 -62 72 -102c22 -44 33 -89 38 -141l3 -28h37h37l-2 22c-8 119 -54 223 -136 305c-59 59 -133 101 -214 122c-30 8 -59 12 -90 14l-21 2v-38zM3 276c3 3 23 3 46 0c133 -16 239 -108 273 -236c9 -34 15 -88 9 -94
c-2 -2 -16 -2 -51 -2c-56 0 -53 -2 -53 22c0 49 -25 105 -63 143s-95 63 -142 63c-22 0 -21 -3 -21 53c0 35 0 49 2 51zM17 225v-37h9c22 0 60 -10 86 -22c40 -19 78 -54 101 -94c17 -29 30 -74 30 -101v-11h37h37v6c0 4 -1 15 -2 25c-16 145 -135 259 -280 270l-18 2v-38z
M53 87c14 4 20 3 34 0c15 -4 28 -11 39 -23c12 -14 17 -28 17 -48c0 -25 -11 -45 -31 -59c-37 -25 -85 -12 -106 29c-5 10 -6 13 -6 30c0 16 0 20 5 30c10 21 26 35 48 41zM57 71c-40 -11 -56 -60 -29 -91c26 -31 77 -24 94 13c6 13 7 34 1 46c-11 25 -40 39 -66 32z" />
    <glyph glyph-name="instagram-2" unicode="&#x6a4;" horiz-adv-x="494" arabic-form="medial" 
d="M125 438c5 1 63 1 128 1c119 0 119 0 133 -5c27 -9 44 -19 64 -39s30 -38 39 -65l5 -15v-122c0 -112 -1 -123 -4 -135c-12 -44 -42 -79 -82 -98c-30 -14 -29 -14 -161 -14s-131 0 -161 14c-40 19 -70 54 -82 98c-3 12 -4 23 -4 135v122l5 15c9 27 19 45 39 65
c14 14 22 20 34 26c18 9 32 14 47 17zM121 421c-7 -2 -22 -7 -32 -12c-26 -13 -46 -33 -59 -59c-15 -31 -16 -32 -15 -164c1 -114 1 -115 6 -129c12 -35 37 -66 68 -81c30 -15 27 -14 158 -14s128 -1 158 14c31 15 56 46 68 81c5 14 5 15 6 129c1 132 0 133 -15 164
c-13 26 -33 46 -59 59c-31 15 -31 15 -159 15c-88 0 -115 -1 -125 -3zM127 389c18 4 222 4 240 0c40 -9 71 -43 78 -83c2 -9 2 -47 2 -122c-1 -106 -1 -109 -5 -120c-13 -33 -38 -57 -71 -67c-16 -5 -232 -5 -248 0c-38 11 -67 43 -74 80c-1 7 -2 51 -2 117
c0 86 1 108 3 118c9 38 40 68 77 77zM130 373c-32 -8 -58 -34 -65 -67c-3 -14 -3 -211 0 -226c5 -26 23 -51 49 -63l14 -6h119h119l14 6c26 12 44 37 49 63c3 15 3 212 0 226c-7 33 -35 61 -68 68c-15 3 -217 2 -231 -1zM363 352c8 2 8 2 17 0c34 -9 39 -55 8 -70
c-25 -12 -54 6 -54 33c0 17 12 32 29 37zM364 335c-13 -6 -18 -17 -12 -29c4 -8 11 -12 21 -12c9 0 20 11 20 20c0 17 -15 27 -29 21zM217 321c18 5 54 2 72 -4c76 -27 111 -111 76 -182c-23 -47 -67 -74 -118 -74c-37 0 -65 12 -91 38c-25 25 -38 52 -40 86
c-3 43 18 89 54 114c14 10 31 18 47 22zM219 305c-60 -16 -97 -76 -85 -135c15 -70 87 -111 153 -86c35 13 64 46 73 84c4 17 3 42 -3 60c-12 36 -45 67 -83 77c-15 4 -40 4 -55 0zM222 272c58 19 117 -32 107 -92c-11 -66 -90 -94 -139 -48c-46 44 -29 121 32 140zM228 257
c-14 -5 -21 -9 -31 -20c-36 -39 -13 -101 39 -111c30 -6 59 11 73 40c7 16 8 38 0 54c-11 23 -33 38 -59 39c-8 0 -17 0 -22 -2z" />
    <glyph glyph-name="spotify-1" unicode="&#x688;" arabic-form="isolated" 
d="M211 437c47 7 98 0 142 -21c28 -13 48 -27 70 -49s36 -42 49 -70c45 -94 25 -206 -49 -280c-22 -22 -42 -36 -70 -49c-79 -38 -173 -30 -247 20c-20 14 -48 43 -62 63c-13 19 -28 51 -34 71c-25 89 -1 181 63 245c22 22 41 36 69 49c22 11 44 17 69 21zM216 422
c-32 -4 -79 -23 -105 -43c-90 -68 -120 -187 -72 -287c12 -25 25 -44 44 -63c22 -22 37 -31 62 -44c45 -22 89 -29 137 -22c74 11 138 57 172 123c60 117 11 258 -107 315c-41 20 -85 27 -131 21zM177 315c20 2 79 -1 104 -5c47 -7 89 -20 122 -38c18 -10 23 -17 23 -32
c0 -13 -5 -22 -15 -28c-11 -6 -20 -5 -40 5c-40 20 -87 31 -148 34c-30 1 -65 -1 -93 -7c-31 -7 -35 -7 -44 -2c-11 6 -17 17 -16 30c2 18 11 26 37 32c16 4 51 9 70 11zM179 299c-26 -3 -47 -6 -66 -10c-17 -4 -23 -6 -25 -10c-4 -7 -2 -17 4 -22l5 -4l26 6
c50 10 98 11 149 4c41 -6 84 -19 109 -33c12 -7 18 -8 24 -3c6 4 6 18 0 24c-18 16 -84 38 -137 45c-18 2 -76 4 -89 3zM159 230c23 3 72 2 95 -1c38 -5 71 -15 107 -33c23 -12 28 -16 31 -26c4 -16 -6 -33 -22 -35c-7 -1 -12 1 -31 10c-25 12 -51 21 -78 26
c-14 3 -27 4 -59 4c-36 0 -44 -1 -61 -5c-28 -7 -34 -7 -41 -3c-10 5 -15 14 -14 27c1 9 2 11 8 17c6 5 11 8 29 12c12 3 28 6 36 7zM162 214c-20 -3 -51 -10 -56 -13s-6 -13 -1 -18c4 -4 5 -4 24 1c27 7 52 8 87 7c48 -2 87 -10 129 -31c11 -5 21 -10 23 -10c5 0 10 9 8 15
c-4 11 -60 35 -105 45c-23 5 -86 7 -109 4zM168 152c25 3 71 1 92 -3c37 -7 89 -28 98 -40c6 -8 5 -23 -2 -31c-9 -10 -17 -10 -38 1c-22 11 -40 17 -62 22c-23 5 -79 5 -106 0c-31 -6 -39 -6 -46 -1c-13 8 -13 29 0 38c6 4 36 11 64 14zM173 136c-26 -2 -57 -8 -60 -11
c-4 -4 -4 -8 0 -11c3 -2 6 -2 20 1c74 14 136 7 191 -21c9 -4 17 -8 19 -7s3 3 3 7c0 6 -2 7 -18 15c-23 12 -43 18 -67 23c-23 5 -63 6 -88 4z" />
    <glyph glyph-name="rdio-1" unicode="&#x68d;" horiz-adv-x="497" arabic-form="isolated" 
d="M167 398c20 4 56 5 76 2c22 -4 20 2 20 -68c0 -51 -1 -62 -3 -64s-6 -2 -19 1c-14 3 -19 3 -32 1c-33 -5 -65 -28 -79 -57c-5 -11 -6 -16 -7 -31s0 -19 4 -28c7 -15 16 -25 31 -32c18 -9 43 -10 64 -4c34 10 64 41 73 76c2 6 2 36 3 94c1 84 2 90 8 90c1 0 12 -6 24 -13
c53 -32 96 -48 141 -53c15 -2 17 -2 21 -7c6 -7 6 -16 -1 -30c-11 -22 -33 -43 -60 -56l-12 -6l-1 -27c-2 -55 -21 -99 -57 -138c-64 -68 -163 -85 -248 -43c-43 22 -82 64 -100 109c-11 29 -13 42 -13 79c0 29 1 36 5 50c11 40 28 72 57 99c20 19 30 27 50 37
c19 10 35 15 55 19zM172 383c-42 -9 -78 -29 -106 -60c-33 -36 -51 -81 -51 -131c0 -97 68 -177 164 -192c21 -3 58 -1 79 4c55 15 102 54 127 107c13 27 17 45 17 80c0 16 1 31 1 32s5 5 11 7c23 9 50 29 61 49c8 14 8 17 -2 17c-4 0 -15 1 -24 3c-37 7 -73 21 -111 43
c-12 7 -21 12 -22 12s-1 -30 -1 -67s-1 -73 -2 -82c-8 -61 -59 -107 -118 -107c-29 0 -50 8 -67 26c-38 41 -24 107 32 144c21 14 53 22 75 19l12 -2v48c0 36 -1 49 -3 50c-5 3 -58 3 -72 0z" />
    <glyph glyph-name="etsy-1" unicode="&#x680;" horiz-adv-x="437" arabic-form="isolated" 
d="M377 438c25 3 33 2 36 -2s-6 -138 -9 -144c-2 -3 -4 -4 -17 -4c-21 0 -25 3 -32 32c-10 40 -18 54 -32 60c-8 3 -14 4 -85 4h-78v-83v-83h50c34 1 50 2 53 4c6 4 10 10 15 34c3 14 7 22 10 26c5 5 6 6 20 6c8 0 16 -1 18 -2c3 -2 3 -13 2 -88c-1 -102 1 -97 -21 -98
c-21 -1 -26 4 -32 33c-4 20 -8 27 -16 30c-4 2 -22 3 -53 4l-46 1v-77c1 -73 1 -76 5 -83c7 -12 11 -13 93 -12l73 1l11 6c6 3 14 10 17 14c6 8 18 34 28 59c3 8 8 17 11 20c5 5 7 6 21 6c10 0 15 -1 17 -3s1 -19 -6 -74c-7 -63 -9 -72 -13 -76s-5 -5 -208 -4
c-112 0 -204 1 -205 2c-3 2 -2 36 1 39c1 1 11 4 22 6s23 5 28 7c7 3 9 5 11 12c3 10 4 349 1 358s-10 12 -34 17c-30 6 -33 10 -33 31c0 10 0 15 2 16c1 1 83 2 180 2c99 0 185 2 195 3zM374 421c-13 -1 -87 -2 -190 -2h-168v-6c0 -6 1 -7 12 -9c36 -7 45 -12 51 -24
c3 -7 4 -16 6 -81c1 -42 1 -121 0 -184c-2 -105 -2 -110 -6 -117c-6 -11 -16 -15 -49 -22c-11 -2 -12 -3 -12 -9v-6h194c107 0 194 0 194 1s3 28 7 60s7 59 7 61c0 4 -8 5 -11 1c-1 -1 -5 -9 -8 -17c-21 -52 -33 -70 -55 -80l-13 -6l-73 -1c-79 -1 -89 0 -100 9
c-3 3 -9 9 -11 14c-4 8 -4 10 -4 92c0 81 0 83 4 86c3 2 12 3 54 2c55 -1 64 -4 73 -13c7 -8 9 -12 14 -31c6 -24 5 -23 14 -23h8v71c0 39 1 73 1 77c0 6 0 7 -7 8h-7l-7 -25c-11 -44 -10 -44 -87 -45c-48 -1 -57 0 -59 3c-2 2 -2 24 -2 95c1 85 2 92 5 95s9 4 84 5
c50 0 84 -1 89 -2c4 -1 11 -5 16 -8c12 -8 21 -26 31 -60l8 -26h6c6 0 7 0 8 10c1 9 7 102 7 108c0 1 -1 2 -2 2s-10 -2 -22 -3z" />
    <glyph glyph-name="vine-1" unicode="&#x6a9;" horiz-adv-x="479" arabic-form="initial" 
d="M294 436c39 11 84 -4 109 -36c11 -14 22 -38 26 -56s3 -67 -2 -84c-4 -16 -9 -19 -25 -19s-40 5 -50 10c-11 6 -13 11 -9 32c7 39 -3 71 -22 70c-22 -1 -36 -25 -33 -59c3 -38 29 -63 76 -73c19 -4 62 -7 81 -6c15 1 14 2 21 -5c6 -6 7 -9 9 -23c9 -58 8 -59 -64 -59h-34
l-7 -13c-21 -40 -63 -93 -101 -132c-31 -31 -39 -36 -54 -38c-10 -1 -13 -1 -26 6c-8 4 -22 14 -32 22c-60 49 -108 136 -136 253c-9 37 -18 92 -20 118c-2 19 -1 24 8 29c6 3 65 8 71 6c3 -1 3 -5 5 -20c19 -144 56 -246 108 -301l14 -15l13 14c23 25 51 62 67 89l5 7
l-12 8c-51 31 -78 80 -78 140c0 45 12 77 38 103c17 17 32 26 54 32zM299 421c-27 -7 -54 -28 -67 -53c-15 -29 -18 -72 -10 -105c10 -39 39 -76 75 -94c15 -8 17 -10 12 -19c-21 -39 -91 -126 -102 -126c-6 0 -36 32 -50 54c-40 59 -71 155 -84 258c-2 14 -4 25 -5 26
c-2 1 -46 -1 -50 -3c-3 -1 -2 -16 5 -60c21 -129 63 -232 120 -291c20 -21 34 -32 51 -42c20 -11 27 -9 60 24c39 39 78 91 104 137c5 9 10 16 12 17s12 1 24 0c27 -1 65 1 68 4c2 2 2 7 0 21c-1 11 -3 22 -4 25l-2 5h-30c-74 1 -116 16 -138 49c-12 18 -15 29 -15 54
c0 27 4 39 17 52c23 23 50 19 64 -9c5 -11 6 -15 7 -30c1 -10 0 -25 -2 -34l-3 -15l11 -3c16 -5 41 -8 43 -5c3 6 6 38 5 60c-2 35 -13 62 -34 81c-24 22 -51 29 -82 22z" />
    <glyph glyph-name="google-plus-1" unicode="&#x679;" horiz-adv-x="495" arabic-form="final" 
d="M137 356c16 2 45 1 62 -3c21 -5 52 -22 66 -35c10 -10 12 -12 12 -18s-2 -9 -19 -25c-22 -22 -27 -24 -42 -12c-26 20 -57 25 -86 14c-37 -13 -62 -55 -55 -94c6 -37 34 -66 71 -73c30 -5 63 7 83 32c5 6 8 11 8 12s-16 2 -35 2c-46 1 -44 0 -45 36v26l6 6l6 6h75
c72 0 75 0 77 -4c3 -6 -1 -60 -6 -77c-30 -94 -133 -141 -222 -100c-43 20 -74 57 -88 104c-6 20 -6 63 -1 83c17 63 69 110 133 120zM145 341c-72 -9 -125 -66 -129 -137c-5 -79 55 -147 135 -153c27 -2 60 5 84 19c18 11 44 38 54 57c12 23 15 35 16 63l1 24h-66h-67v-21
v-21h41c39 0 41 0 43 -4c3 -6 -7 -26 -22 -42c-48 -52 -132 -41 -165 22c-24 45 -12 101 30 131c36 26 82 26 118 2l14 -9l5 4c3 2 9 8 15 14l10 10l-9 8c-11 10 -40 25 -56 29c-13 3 -41 5 -52 4zM389 267c4 4 7 5 28 5s22 0 27 -5c4 -4 5 -7 5 -22v-17h14
c16 0 27 -4 30 -10c1 -2 2 -13 2 -24c0 -20 0 -20 -6 -26s-7 -6 -23 -6h-17v-17c0 -16 0 -17 -6 -23s-6 -6 -26 -6c-24 0 -29 2 -32 14c-1 4 -2 13 -2 20v12h-17c-15 0 -18 1 -22 5c-5 5 -5 7 -5 28c0 22 0 22 5 27c4 4 8 5 23 6h18v18c0 15 0 17 4 21zM401 238
c0 -26 0 -26 -25 -26h-21v-17v-17h20c11 0 20 -1 22 -2s3 -7 4 -23v-21h16h16v21c0 13 1 21 3 23s10 2 23 2h20v16l-1 17l-21 1c-14 0 -21 1 -22 3c-1 1 -2 10 -2 21v20h-16h-16v-18z" />
    <glyph glyph-name="skype-1" unicode="&#x68e;" horiz-adv-x="495" arabic-form="isolated" 
d="M102 437c34 7 69 1 100 -19c9 -6 10 -6 28 -5c46 3 96 -10 135 -36c64 -43 103 -121 98 -196l-1 -19l7 -9c36 -47 35 -114 -2 -161c-30 -39 -84 -56 -132 -44c-16 4 -35 13 -46 21c-6 4 -7 5 -17 3c-19 -3 -64 -1 -87 5c-76 20 -138 82 -158 159c-6 23 -8 62 -5 83l2 14
l-9 18c-20 39 -20 78 -1 117c16 33 52 61 88 69zM107 422c-6 -1 -18 -6 -27 -10c-62 -30 -83 -111 -44 -166c4 -6 4 -7 2 -23c-9 -59 7 -116 44 -162c45 -56 120 -84 192 -73l14 2l9 -7c26 -20 63 -28 95 -20c45 11 79 49 86 95c5 32 -5 66 -26 91c-7 8 -8 11 -7 15
c1 3 2 17 2 32c0 22 -2 31 -6 47c-19 73 -76 130 -148 148c-22 6 -55 8 -72 5c-12 -2 -12 -2 -22 5c-13 9 -25 14 -37 18s-42 6 -55 3zM205 322c18 5 61 5 78 1s39 -15 49 -25c5 -5 10 -13 13 -19c11 -25 0 -50 -24 -52c-13 -1 -22 3 -30 16c-10 15 -20 25 -27 28
c-11 5 -35 4 -47 -2c-10 -5 -13 -8 -13 -16c0 -10 11 -15 62 -28c56 -14 77 -26 89 -51c5 -11 6 -15 6 -34s-1 -22 -6 -33c-7 -15 -27 -35 -42 -42c-20 -9 -40 -13 -67 -13c-40 0 -66 8 -88 29c-19 18 -30 45 -24 62c5 14 23 23 38 19c11 -3 19 -11 27 -26
c13 -25 23 -31 49 -31c18 0 35 7 41 16c8 12 3 26 -11 33c-4 2 -21 8 -38 12c-49 12 -68 20 -84 37c-12 13 -17 25 -17 46c0 16 1 19 6 29c7 13 22 29 36 36c5 2 16 6 24 8zM206 306c-26 -7 -45 -23 -50 -43c-3 -12 -2 -29 4 -39c6 -11 21 -22 38 -29c7 -3 26 -9 44 -13
c41 -10 56 -18 63 -32c16 -31 -12 -61 -57 -61c-31 0 -47 9 -63 38c-10 19 -15 23 -26 19c-13 -4 -14 -15 -5 -34c15 -30 46 -44 92 -44c38 0 65 9 83 28c25 27 22 72 -6 91c-13 9 -27 14 -67 24c-53 13 -68 22 -68 43c0 12 6 22 20 29c9 5 13 6 30 7c25 1 36 -2 49 -15
c5 -5 10 -13 12 -16c5 -10 13 -17 19 -17c8 0 16 8 16 17c0 20 -21 40 -53 48c-18 5 -56 4 -75 -1z" />
    <glyph glyph-name="blogger-1" unicode="&#x671;" arabic-form="isolated" 
d="M136 438c15 3 118 3 134 0c34 -6 64 -21 89 -45c17 -17 30 -36 37 -56c5 -15 10 -38 10 -49c0 -10 5 -19 13 -24c5 -3 10 -4 26 -4c22 0 31 -3 40 -14c11 -14 11 -17 10 -95c-1 -77 0 -80 -12 -108c-21 -50 -70 -88 -125 -97c-17 -3 -203 -3 -220 0
c-70 11 -125 66 -136 136c-3 17 -3 203 0 220c11 68 66 125 134 136zM134 421c-49 -11 -89 -44 -107 -88c-10 -26 -11 -35 -11 -141s1 -115 11 -141c14 -35 47 -67 82 -81c24 -10 35 -10 139 -10c106 0 115 1 141 11c35 14 67 47 81 82c9 23 10 37 10 105c0 56 0 65 -3 71
c-5 12 -13 15 -35 15s-31 4 -41 15c-8 9 -10 16 -12 36c-5 59 -45 106 -106 124c-17 5 -129 6 -149 2zM143 316c7 3 14 4 60 4c42 0 53 0 59 -3c32 -13 32 -57 0 -70c-11 -5 -107 -5 -118 0c-31 13 -32 55 -1 69zM147 301c-6 -3 -11 -12 -11 -19s6 -16 12 -19
c9 -4 101 -4 110 0c6 3 12 12 12 19s-6 16 -12 19c-9 4 -103 4 -111 0zM143 136c7 3 15 4 105 4s98 -1 105 -4c30 -14 30 -54 0 -68c-7 -3 -15 -4 -105 -4c-83 0 -98 0 -104 3c-31 13 -32 55 -1 69zM147 121c-6 -3 -11 -12 -11 -19s6 -16 12 -19c5 -3 20 -3 100 -3
s95 0 100 3c6 3 12 12 12 19s-6 16 -12 19c-9 4 -193 4 -201 0z" />
    <glyph glyph-name="foursquare-1" unicode="&#x67f;" horiz-adv-x="360" arabic-form="isolated" 
d="M34 437c7 2 35 3 148 3c153 0 153 0 165 -12c10 -10 13 -22 12 -42c-1 -16 -41 -224 -48 -248c-5 -17 -12 -27 -23 -33l-9 -6l-48 -1l-48 -1l-63 -73c-66 -76 -71 -80 -86 -80c-13 0 -27 10 -32 23c-1 4 -2 73 -2 220v214l5 10c6 12 17 22 29 26zM34 420
c-7 -3 -11 -7 -14 -14l-4 -9v-213v-212l6 -6c6 -6 14 -7 21 -3c2 1 32 34 65 72s62 72 64 74c4 4 8 4 54 5c47 1 50 1 55 5c3 2 7 7 9 10s14 58 29 131c28 137 29 145 19 155c-3 3 -8 6 -12 7s-60 2 -145 2h-138zM69 386c2 1 52 2 110 2c118 0 116 0 122 -13
c3 -7 3 -9 -2 -36c-7 -36 -8 -39 -15 -46l-6 -6l-58 -1c-37 0 -57 -1 -59 -2s-3 -7 -3 -15c0 -10 1 -13 4 -15c2 -1 22 -2 50 -2c51 0 55 -1 61 -12c4 -8 4 -10 -2 -42c-9 -48 -7 -46 -62 -46c-22 0 -43 0 -45 -1c-3 -1 -22 -23 -49 -56c-25 -30 -47 -55 -50 -56s-6 -1 -8 1
c-3 2 -3 20 -3 167v165l5 6c3 3 8 7 10 8zM72 369c-2 -2 -2 -43 -2 -152l1 -149l38 46c21 25 41 47 44 49c5 3 11 4 49 5c24 0 44 1 45 2s5 15 8 31c4 23 5 30 3 32s-10 3 -49 3c-52 0 -56 1 -63 13c-6 9 -6 35 0 42c9 11 12 11 71 11c47 0 55 0 57 3c4 5 15 61 12 64
c-3 4 -211 4 -214 0z" />
    <glyph glyph-name="love-1" unicode="&#x684;" horiz-adv-x="493" arabic-form="initial" 
d="M92 383c16 4 51 4 66 0c32 -8 63 -30 84 -58l5 -6l4 6c21 28 53 50 85 58c15 4 48 4 65 0c41 -10 74 -40 87 -80c5 -14 5 -19 5 -40c0 -22 0 -26 -6 -43c-33 -95 -136 -208 -213 -233c-14 -5 -20 -6 -32 -5c-75 5 -201 134 -236 240c-5 15 -6 20 -6 41s0 26 5 40
c13 39 47 70 87 80zM95 367c-57 -15 -89 -69 -77 -127c10 -47 51 -112 104 -165c39 -39 67 -59 99 -71c25 -9 40 -8 71 8c26 13 46 29 78 61c44 44 76 90 95 134c14 32 17 53 11 80c-8 40 -38 70 -79 80c-20 5 -53 4 -70 -3c-30 -12 -55 -34 -68 -58c-6 -11 -8 -13 -12 -13
s-6 3 -12 13c-13 24 -39 46 -69 58c-11 4 -16 4 -36 5c-17 0 -27 0 -35 -2z" />
    <glyph glyph-name="periscope-1" unicode="&#x686;" horiz-adv-x="393" arabic-form="medial" 
d="M162 437c45 8 96 -1 138 -26c22 -13 51 -43 64 -65c47 -79 36 -168 -34 -273c-45 -67 -108 -129 -133 -129c-33 0 -120 95 -162 178c-29 56 -39 100 -34 143c10 87 76 157 161 172zM164 421c-37 -7 -65 -22 -92 -48c-16 -15 -29 -32 -39 -53c-18 -38 -22 -75 -12 -117
c15 -64 66 -147 127 -207c19 -19 37 -33 46 -35c8 -2 26 10 56 40c65 65 112 146 124 213c13 72 -22 148 -85 185c-37 22 -84 30 -125 22zM160 374c22 6 60 4 81 -3c59 -21 96 -73 96 -135c0 -39 -14 -72 -41 -99s-56 -40 -92 -42c-45 -3 -93 19 -120 54
c-29 38 -38 86 -24 130c7 22 18 39 36 58c18 18 40 30 64 37zM165 359c-19 -5 -43 -18 -58 -33s-24 -29 -31 -50c-5 -13 -6 -18 -6 -39s1 -26 6 -40c7 -20 14 -31 28 -46c15 -16 30 -26 51 -34c15 -5 19 -6 41 -6c21 0 26 0 39 5c21 7 35 17 50 32s28 38 33 58
c4 16 4 46 0 61c-11 44 -48 81 -92 92c-15 4 -45 4 -61 0zM182 347c5 2 29 1 40 -2c50 -13 85 -58 85 -109c0 -50 -33 -93 -81 -107c-15 -5 -46 -5 -60 -1c-57 18 -92 74 -80 130c4 19 11 33 17 34c3 0 5 -2 9 -8c10 -15 30 -23 47 -18c13 4 27 18 30 31c3 12 0 25 -6 33
c-4 6 -5 15 -1 17zM202 329c9 -23 4 -47 -13 -64c-20 -20 -52 -22 -75 -5l-10 6s-2 -6 -3 -14c-11 -66 49 -123 114 -109c37 8 65 36 74 73c3 15 1 39 -4 54c-12 31 -42 56 -75 61c-9 1 -9 1 -8 -2z" />
    <glyph glyph-name="digg-1" unicode="&#x67e;" arabic-form="final" 
d="M75 333c1 1 15 1 32 1l30 -1l1 -110c0 -79 0 -110 -2 -112c-3 -4 -130 -5 -134 -1c-3 3 -3 153 0 158c2 2 8 3 37 4h35v30c0 16 0 30 1 31zM146 332c3 3 57 3 60 0c2 -2 2 -11 2 -27c0 -22 0 -25 -4 -27c-2 -1 -15 -2 -29 -2c-20 0 -25 0 -28 3c-2 2 -3 8 -3 27
c0 16 0 24 2 26zM90 289c0 -20 0 -29 -2 -31s-13 -2 -37 -2h-35v-66v-66h53h53v97v97h-16h-16v-29zM160 305v-13h16h16v13v13h-16h-16v-13zM147 268c2 2 10 2 31 2l29 -1l1 -79c0 -56 0 -79 -2 -81c-3 -3 -52 -4 -58 -1c-4 2 -4 5 -4 80c0 59 1 78 3 80zM218 268
c3 3 129 3 132 0c2 -2 2 -29 2 -111c0 -96 0 -109 -3 -112s-12 -3 -65 -3s-62 0 -65 3s-3 8 -3 28c0 13 1 25 2 27c2 2 8 3 36 4l35 1l-34 1c-23 0 -35 0 -37 2c-3 3 -3 157 0 160zM362 268c3 3 129 3 132 0c2 -2 2 -29 2 -111c0 -96 0 -109 -3 -112s-12 -3 -65 -3
s-62 0 -65 3s-3 8 -3 28c0 13 1 25 2 27c2 2 8 3 36 4l35 1l-34 1c-23 0 -35 0 -37 2c-3 3 -3 157 0 160zM160 188v-66h16h16v66v66h-16h-16v-66zM232 188v-66h33c38 0 39 0 39 -16c0 -18 1 -18 -38 -18h-34v-15v-15h52h52v98v98h-52h-52v-66zM376 188v-66h33
c38 0 39 0 39 -16c0 -18 1 -18 -38 -18h-34v-15v-15h52h52v98v98h-52h-52v-66zM50 227c3 4 33 4 36 1s3 -68 0 -72c-1 -2 -6 -2 -19 -2l-18 1v35c0 24 -1 35 1 37zM264 221c3 4 33 4 36 1c4 -4 3 -69 -1 -72c-2 -1 -8 -2 -19 -2l-17 1v35c0 24 -1 35 1 37zM408 221
c3 4 33 4 36 1c4 -4 3 -69 -1 -72c-2 -1 -8 -2 -19 -2l-17 1v35c0 24 -1 35 1 37zM64 192c0 -21 0 -22 4 -22s4 1 4 22s0 22 -4 22s-4 -1 -4 -22zM278 186c0 -21 0 -22 4 -22s4 1 4 22s0 22 -4 22s-4 -1 -4 -22zM422 186c0 -21 0 -22 4 -22s4 1 4 22s0 22 -4 22
s-4 -1 -4 -22z" />
    <glyph glyph-name="box-1" unicode="&#x67b;" arabic-form="isolated" 
d="M14 348c13 8 32 4 39 -10c3 -5 4 -13 5 -39v-32l8 2c32 11 75 0 98 -26l9 -11l12 13c18 18 43 29 67 29c14 0 35 -6 48 -14l13 -8l2 6c4 14 13 22 27 22c5 0 11 -1 14 -3s15 -14 27 -28s22 -25 22 -25s10 11 22 25s24 26 27 28c8 4 21 4 29 -1c11 -7 16 -22 11 -34
c-1 -3 -13 -18 -26 -33s-24 -28 -24 -29s11 -13 24 -28c27 -31 28 -32 28 -43c0 -20 -20 -34 -38 -26c-5 2 -15 11 -30 28l-23 25l-7 -7c-4 -4 -15 -16 -24 -26c-18 -20 -25 -24 -37 -22c-9 2 -18 10 -21 19l-3 8l-8 -6c-17 -12 -28 -15 -53 -15h-23l-18 9
c-13 6 -19 11 -27 20l-10 11l-14 -13c-20 -19 -39 -28 -66 -28c-16 0 -28 3 -42 10s-34 26 -41 40c-11 21 -11 26 -11 114c0 77 0 82 4 88c2 4 6 8 10 10zM19 331c-3 -4 -4 -14 -3 -87l1 -83l5 -12c15 -32 43 -48 78 -46c26 2 47 14 61 37c10 17 15 17 22 3
c17 -33 59 -49 94 -37c64 23 72 110 12 142c-37 20 -84 7 -105 -31c-8 -14 -15 -15 -22 0c-13 25 -46 43 -75 40c-6 -1 -17 -3 -24 -6c-21 -8 -20 -10 -21 37c-1 23 -2 41 -2 41s-1 2 -3 4c-5 5 -14 4 -18 -2zM333 260c-7 -8 -4 -12 25 -45c15 -18 28 -33 28 -34
c0 -2 -9 -15 -41 -51c-16 -18 -18 -23 -11 -30c9 -9 12 -6 41 27c25 29 28 32 33 29c2 -1 15 -15 28 -30c28 -33 32 -34 40 -26s6 12 -24 46c-15 18 -28 34 -28 35s13 16 28 34c29 33 32 39 24 46c-5 4 -14 3 -18 -1c-2 -2 -13 -15 -26 -30c-15 -18 -24 -26 -27 -26
s-10 8 -24 24c-32 36 -33 36 -39 36c-3 0 -7 -2 -9 -4zM76 229c13 4 30 4 42 -2c33 -16 39 -61 12 -86c-11 -10 -21 -14 -36 -14c-30 0 -52 22 -52 53c0 22 14 42 34 49zM235 230c3 1 11 2 18 2c47 1 70 -59 35 -91c-11 -10 -21 -14 -36 -14c-22 0 -39 12 -48 32
c-4 9 -5 29 -2 38c5 14 20 29 33 33zM80 214c-6 -3 -15 -11 -19 -18c-4 -8 -4 -25 1 -34c10 -20 36 -25 55 -11s18 45 -2 59c-8 5 -26 8 -35 4zM237 213c-19 -9 -27 -33 -16 -52c12 -21 40 -24 57 -7c16 16 14 43 -5 56c-9 6 -27 7 -36 3zM343 203c1 -3 2 -15 2 -26
c0 -23 -1 -23 13 -7c9 11 10 11 -7 29c-9 9 -9 10 -8 4z" />
    <glyph glyph-name="share-1" unicode="&#x68c;" horiz-adv-x="443" arabic-form="final" 
d="M332 437c40 11 82 -9 101 -47c7 -15 8 -15 8 -38c0 -22 -1 -24 -7 -37c-9 -19 -24 -33 -42 -42c-12 -6 -17 -8 -32 -9c-19 -1 -36 2 -48 10l-6 4l-29 -17c-16 -9 -45 -26 -65 -38l-36 -22v-9v-9l63 -39c35 -21 65 -38 66 -38s6 2 12 5c41 20 93 2 115 -39
c18 -35 14 -72 -13 -100c-35 -37 -90 -37 -125 -2c-16 16 -25 34 -26 55l-1 16l-65 39l-65 39l-7 -5c-23 -13 -54 -13 -79 -1c-35 17 -56 55 -50 92c7 41 40 71 81 74c18 1 34 -1 48 -9l7 -4l64 38l65 38v9c0 13 6 33 12 44c7 12 23 29 35 35c5 2 13 5 19 7zM336 421
c-32 -9 -52 -35 -53 -70c0 -9 0 -18 -1 -18c-3 -3 -138 -82 -142 -84s-7 0 -13 4c-36 24 -86 8 -105 -33c-4 -10 -5 -14 -5 -28c0 -21 6 -35 20 -50c23 -24 63 -29 89 -11c4 3 9 5 11 5c3 0 87 -49 132 -77l15 -9v-17c0 -26 10 -46 30 -60c54 -37 127 12 111 75
c-8 31 -32 52 -65 55c-13 1 -36 -4 -45 -11c-3 -2 -7 -4 -9 -4c-4 0 -140 81 -145 86c-1 1 -2 9 -2 18c0 12 1 17 3 19c5 4 142 85 144 85c1 0 6 -3 11 -6c35 -22 84 -7 103 32c4 8 5 12 5 30c0 19 -1 22 -6 32c-12 23 -34 38 -60 39c-8 0 -18 0 -23 -2z" />
    <glyph glyph-name="plaxo-1" unicode="&#x687;" horiz-adv-x="495" arabic-form="initial" 
d="M213 438c6 1 26 1 42 1c25 -1 33 -2 53 -7c44 -11 83 -33 115 -65c27 -27 47 -61 59 -96c30 -90 8 -187 -59 -254c-44 -44 -100 -68 -163 -72c-36 -2 -87 6 -95 15c-3 4 -3 13 -3 118c0 65 1 119 2 127c3 18 9 32 20 44c18 19 39 29 63 29c74 0 113 -88 63 -142
c-16 -17 -33 -25 -60 -28c-25 -3 -38 -13 -43 -33c-4 -16 2 -33 16 -43c11 -8 22 -9 44 -6c72 9 131 61 145 130c5 23 6 36 4 56c-7 57 -40 105 -90 131c-28 14 -44 18 -78 18s-46 -3 -74 -16c-42 -20 -72 -55 -88 -102l-5 -16l-1 -101c-1 -106 -1 -104 -10 -104
c-6 0 -32 34 -45 61c-39 79 -32 176 19 250c14 20 42 50 62 63c30 21 71 36 107 42zM215 422c-47 -7 -97 -32 -131 -66c-77 -78 -90 -197 -31 -290c4 -6 8 -12 9 -12s2 40 2 88c1 100 1 96 19 133c19 38 45 65 82 83c32 16 46 19 84 19c29 0 33 -1 49 -6
c60 -18 105 -60 125 -118c37 -108 -32 -222 -145 -242c-34 -6 -52 -3 -68 12c-14 13 -19 24 -19 43c0 18 5 30 18 42c12 11 20 14 40 16c37 4 60 24 67 57c6 29 -10 60 -38 74c-10 5 -13 6 -30 6c-16 0 -21 -1 -29 -5c-15 -7 -30 -23 -36 -37l-4 -12l-1 -117
c-1 -112 0 -118 3 -120c2 -1 11 -3 20 -5c74 -15 151 6 206 59c21 20 33 37 45 60c62 117 14 260 -105 317c-41 20 -88 27 -132 21z" />
    <glyph glyph-name="github-2" unicode="&#x67f;" horiz-adv-x="495" arabic-form="initial" 
d="M207 437c22 4 58 4 80 0c92 -15 168 -80 197 -169c9 -28 11 -42 11 -78c0 -28 -1 -36 -5 -52c-20 -81 -70 -141 -146 -174c-22 -10 -30 -10 -38 -2l-6 6v39c0 45 -1 54 -11 68c-4 6 -7 12 -6 14c1 4 2 3 26 8c28 6 43 14 58 30c17 19 25 46 24 80c-1 22 -6 37 -18 52
c-6 8 -6 8 -4 19c3 14 4 29 1 39c-2 8 -2 7 -10 6s-34 -12 -44 -19c-6 -4 -7 -5 -24 -1c-23 5 -67 5 -90 0l-16 -3l-14 8c-15 9 -30 15 -39 16c-6 1 -7 0 -9 -8c-3 -12 -3 -22 0 -37l2 -13l-7 -9c-13 -18 -16 -29 -16 -56c0 -60 27 -94 84 -104c10 -2 19 -4 21 -5
c5 -3 4 -7 -2 -16c-3 -5 -8 -14 -9 -19c-2 -9 -3 -10 -12 -13c-15 -5 -34 -5 -46 1c-9 4 -14 8 -32 30c-4 5 -10 10 -12 11c-3 2 -2 0 3 -6c4 -5 11 -16 15 -24c13 -25 26 -31 62 -30l20 1v-29c1 -28 0 -30 -4 -35c-7 -8 -15 -8 -34 -1c-35 13 -70 37 -95 66
c-86 99 -82 246 11 339c37 37 84 62 134 70zM213 422c-127 -20 -214 -140 -194 -266c6 -36 22 -75 43 -102c13 -18 41 -44 58 -55c16 -10 45 -24 54 -26l6 -1v19v19h-15c-32 0 -53 12 -66 39c-6 12 -11 18 -22 27c-11 10 -13 14 -13 18c0 8 7 13 20 12c16 -1 28 -9 41 -27
c13 -17 22 -23 38 -23c14 0 17 2 21 13c2 5 3 10 3 10s-7 3 -16 5c-47 13 -74 42 -82 90c-6 35 -2 62 14 87c6 10 6 11 4 21c-2 13 0 31 4 46c2 8 4 10 8 12c11 4 43 -6 62 -19c7 -5 7 -4 20 -1c17 4 75 4 92 0l12 -3l18 10c28 15 52 18 57 8c7 -12 10 -41 6 -58
c-1 -5 0 -8 5 -15c13 -19 16 -30 16 -60c0 -31 -3 -43 -13 -64c-13 -27 -36 -44 -72 -54l-16 -4l4 -11c4 -9 4 -16 5 -54l1 -43l6 1c9 2 42 17 56 27c17 12 48 42 60 59c41 59 52 132 32 200c-20 65 -68 120 -132 147c-27 11 -50 16 -83 17c-16 0 -36 0 -42 -1z" />
    <glyph glyph-name="joomla-1" unicode="&#x6a6;" horiz-adv-x="494" arabic-form="final" 
d="M52 437c13 4 33 3 48 -4s31 -22 37 -36l4 -9h17c32 0 60 -11 82 -33c3 -3 4 -2 13 6c12 11 34 22 51 25c7 1 21 2 30 2l17 -1l3 9c5 13 22 30 37 37c11 5 15 6 30 6c22 0 37 -6 52 -22s19 -26 19 -49c0 -16 0 -20 -5 -30c-7 -15 -20 -28 -35 -35l-12 -5v-24
c0 -20 -1 -25 -5 -36c-5 -15 -16 -31 -25 -41l-6 -7l10 -10c18 -21 27 -45 27 -75v-18l9 -4c14 -5 29 -21 37 -37c6 -12 7 -15 7 -30c0 -14 0 -18 -5 -28c-8 -16 -22 -30 -37 -37c-11 -5 -14 -6 -30 -6s-20 1 -30 6c-15 7 -29 22 -34 34c-4 9 -4 9 -10 8
c-12 -3 -40 -1 -53 3c-15 5 -34 15 -44 25l-7 7l-10 -9c-20 -18 -55 -30 -82 -28l-13 1l-5 -10c-3 -5 -10 -14 -16 -20c-35 -32 -93 -19 -113 24c-5 10 -5 13 -5 31s1 22 6 31c8 15 18 25 30 31l10 5l-1 17c0 9 1 21 2 28c3 16 14 39 25 51l9 10l-9 10c-19 22 -28 50 -26 81
l1 18l-11 6c-13 7 -24 18 -31 33c-4 9 -5 14 -5 29c0 16 1 20 6 30c9 20 24 33 46 40zM52 421c-14 -4 -30 -21 -34 -35c-7 -23 -1 -43 16 -59c6 -5 14 -12 18 -13c12 -4 14 -6 11 -18c-5 -21 -1 -44 9 -66c5 -11 13 -21 65 -73l59 -59l18 18l18 18l-57 57
c-56 56 -58 59 -61 70c-6 19 0 36 15 50c17 16 42 14 61 -2l6 -5l18 18l18 18l-9 8c-20 18 -42 25 -72 23c-14 -1 -21 0 -22 2c-1 1 -3 6 -5 12c-9 29 -42 45 -72 36zM402 420c-15 -5 -30 -20 -35 -36c-2 -7 -4 -13 -6 -14s-7 -1 -11 0c-23 5 -54 0 -74 -12
c-10 -6 -123 -117 -123 -121c0 -1 8 -10 17 -19l17 -17l56 56c41 41 59 58 66 61c17 8 35 4 50 -10c18 -17 20 -43 5 -63l-7 -8l18 -18l18 -18l8 9c20 23 29 58 22 87c-3 11 -1 13 15 18c13 4 27 15 33 28c2 4 4 13 5 20c1 18 -3 31 -16 44c-16 16 -36 20 -58 13zM146 303
c-12 -5 -20 -21 -18 -33c2 -8 9 -20 12 -20c1 0 12 10 23 21c14 14 20 21 19 23c-2 5 -16 12 -23 12c-4 0 -10 -2 -13 -3zM312 301c-4 -2 -9 -5 -9 -6s9 -12 21 -24l21 -22l5 5c7 6 10 18 7 28c-5 20 -27 29 -45 19zM272 264l-18 -18l56 -56c31 -31 58 -60 60 -64
c3 -5 4 -11 4 -21c0 -12 -1 -15 -6 -24c-10 -17 -31 -26 -50 -22c-4 1 -11 4 -17 8l-11 7l-17 -17l-18 -18l8 -8c5 -4 15 -10 23 -14c21 -11 41 -12 70 -6c7 2 9 0 14 -14s21 -29 35 -34c19 -6 42 -1 57 13c3 3 8 9 11 15c4 8 5 13 5 25c0 13 -1 17 -6 26
c-8 14 -19 23 -33 27c-6 2 -12 5 -13 6c-2 1 -3 8 -2 23c1 18 1 23 -3 35c-2 8 -8 20 -12 26s-32 37 -63 68l-56 55zM220 212l-22 -22l22 -22l23 -23l22 23l23 22l-22 22c-12 12 -22 22 -23 22s-11 -10 -23 -22zM87 172c-9 -10 -18 -25 -22 -39c-4 -12 -4 -16 -3 -36l1 -23
l-11 -5c-17 -7 -24 -13 -31 -27c-12 -24 -7 -51 13 -68c21 -18 52 -19 73 -1c8 7 18 24 18 30s7 7 20 5c17 -3 39 0 58 9c14 7 20 12 74 66l59 59l-19 18l-18 19l-56 -56c-31 -31 -59 -58 -62 -60s-11 -3 -16 -4c-43 -5 -70 46 -40 78l5 5l-18 18c-10 10 -18 18 -19 18
s-3 -3 -6 -6zM135 125c-7 -9 -9 -20 -5 -30c8 -21 32 -28 49 -14l6 6l-21 21c-12 12 -22 22 -23 22s-4 -2 -6 -5zM324 108c-12 -12 -21 -21 -21 -22s4 -4 9 -7c7 -4 11 -5 18 -4c15 2 26 13 28 28c1 7 0 11 -4 18c-3 5 -6 9 -7 9s-11 -10 -23 -22z" />
    <glyph glyph-name="github-1" unicode="&#x67f;" horiz-adv-x="459" arabic-form="final" 
d="M244 436c17 8 36 3 49 -12c26 -30 7 -77 -32 -77c-25 0 -44 19 -44 46c0 19 10 35 27 43zM247 420c-10 -6 -15 -15 -14 -28c1 -14 7 -22 19 -27c8 -3 10 -3 18 0c12 4 17 13 18 26c2 25 -21 41 -41 29zM334 361c5 5 67 5 71 0c2 -2 2 -8 1 -22l-2 -19h21c14 0 21 0 23 -2
c3 -3 3 -59 0 -62c-2 -2 -10 -2 -23 -2h-21l1 -52c1 -52 2 -57 9 -62c5 -3 16 -2 26 3s11 5 15 2s4 -6 4 -31c0 -32 -1 -34 -20 -40c-36 -12 -72 -4 -89 18c-14 19 -19 47 -19 123v40l-11 -1c-15 -1 -15 1 -15 33c0 14 1 27 2 29c2 3 4 4 13 4h11v19c0 14 1 20 3 22z
M349 348c0 0 -1 -10 -1 -21c0 -23 -1 -23 -17 -23h-10v-16l1 -17h11c6 0 12 -2 13 -3c2 -2 2 -25 3 -72c1 -65 1 -70 5 -80c10 -25 34 -36 66 -30c23 4 23 4 23 22v16l-16 -1c-19 -1 -26 3 -33 17c-4 9 -4 12 -5 66c-1 51 0 58 3 61s7 3 23 3h20v17v17h-21
c-26 0 -27 0 -25 26l2 18h-21h-21zM79 322c15 3 39 1 56 -5c18 -6 31 -6 54 2c18 6 17 6 21 2c3 -3 3 -9 3 -32c0 -16 -1 -29 -2 -31s-5 -4 -9 -5l-6 -2v-16c2 -46 -28 -86 -72 -97c-18 -5 -18 -4 -20 -11c-3 -11 10 -21 30 -24c28 -4 56 -19 67 -35c9 -13 10 -22 9 -43
c-1 -15 -2 -21 -7 -32c-10 -22 -23 -33 -49 -42c-14 -5 -19 -6 -47 -6c-27 0 -33 1 -46 5c-20 6 -29 10 -40 21c-14 13 -21 29 -21 50c0 10 1 19 3 26c4 12 17 27 29 34l8 5l-5 10c-4 8 -5 11 -4 26c1 13 2 19 5 25l5 7l-6 4c-7 5 -22 27 -27 40c-5 12 -6 38 -3 52
c6 27 24 50 50 63c8 4 19 8 24 9zM225 318c3 3 69 3 71 0s2 -241 0 -244s-68 -3 -71 0s-3 241 0 244zM79 305c-24 -7 -44 -23 -53 -43c-5 -11 -6 -15 -6 -33s0 -21 5 -31c6 -13 20 -29 30 -34c9 -5 11 -12 3 -17c-7 -5 -11 -14 -11 -28c0 -12 3 -20 11 -27
c9 -8 6 -13 -8 -20c-25 -11 -34 -24 -34 -50c0 -25 11 -40 34 -51c35 -16 93 -14 120 5c16 11 25 32 25 56c0 30 -17 45 -60 54c-22 5 -32 9 -40 19c-7 9 -9 16 -6 27s11 17 28 21c8 2 18 5 22 7c30 16 48 55 39 87c-3 11 -1 15 10 18l8 2v19c1 17 0 18 -3 17
c-8 -3 -30 -7 -39 -7c-6 0 -15 2 -23 5c-16 6 -38 8 -52 4zM239 196v-108h21h21v108v108h-21h-21v-108zM81 271c4 2 12 3 20 3c18 0 28 -6 35 -21c5 -10 5 -13 4 -28c-1 -14 -1 -18 -6 -25c-8 -12 -15 -15 -33 -15c-26 0 -38 11 -40 39c-1 23 6 40 20 47zM84 253
c-6 -6 -8 -15 -7 -30c1 -16 8 -22 24 -22c10 0 12 0 17 5s5 8 6 19c1 23 -6 33 -24 33c-9 0 -12 -1 -16 -5zM89 60c15 2 16 2 31 0c27 -4 38 -16 36 -37c-1 -13 -5 -20 -17 -27c-8 -5 -11 -5 -32 -5s-24 1 -33 5c-13 6 -19 15 -19 28c0 20 12 33 34 36zM91 44
c-11 -2 -19 -8 -20 -15c-2 -15 6 -21 31 -23c13 -1 19 0 26 3c10 4 13 8 13 18c0 7 -4 12 -12 15c-7 3 -28 4 -38 2z" />
    <glyph glyph-name="space" unicode=" " horiz-adv-x="200" 
 />
    <glyph glyph-name="500px-1" unicode="&#xfb48;" horiz-adv-x="495" 
d="M32 333c2 2 15 3 66 3c40 0 66 -1 68 -2c3 -2 4 -4 4 -24c0 -30 2 -28 -52 -28h-42l-1 -10c-1 -5 -1 -10 -2 -12c-1 -3 0 -3 9 0c26 9 62 0 79 -21l5 -6l4 6c7 10 20 20 32 26c9 4 14 6 31 7c32 1 53 -8 78 -33l14 -14l11 11c27 28 48 37 80 36c23 -1 36 -7 52 -22
c13 -12 21 -25 25 -43c4 -19 4 -34 -1 -52c-5 -19 -11 -30 -24 -42c-24 -24 -62 -29 -96 -14c-11 5 -31 20 -41 31l-6 6l-15 -15c-8 -8 -20 -16 -26 -19c-28 -15 -64 -16 -89 0c-9 6 -25 22 -25 25c0 1 -5 -4 -12 -11c-19 -19 -40 -28 -68 -28c-47 0 -85 29 -89 68
c-2 17 0 19 26 20c27 1 32 -1 35 -13c3 -13 11 -20 24 -21c18 -1 30 8 33 27c7 35 -29 57 -53 32l-7 -7h-24c-23 0 -24 1 -26 5s0 15 6 50c4 25 10 54 12 64s4 19 5 20zM44 318c0 -1 -4 -24 -9 -52s-9 -53 -9 -54c0 -3 27 -3 28 0c2 4 16 12 25 14c29 7 56 -15 57 -46
c0 -23 -10 -42 -27 -50c-24 -11 -55 2 -62 26c-1 4 -3 5 -16 4c-14 -1 -15 -1 -14 -6c1 -10 11 -27 21 -34c15 -11 28 -15 52 -15c19 0 22 1 33 6c13 6 29 21 35 33c4 8 10 10 14 7c2 -1 5 -6 8 -11c7 -11 19 -23 31 -29c7 -3 14 -4 29 -4c18 0 19 1 32 7c10 5 19 11 32 24
c10 10 19 18 21 18s8 -5 15 -12c28 -28 44 -37 72 -37c20 0 30 4 44 17c30 27 31 85 3 113c-15 15 -28 20 -51 19c-25 -1 -36 -7 -61 -32c-11 -11 -20 -20 -22 -20s-12 9 -22 19c-24 25 -36 32 -61 33c-22 1 -35 -3 -48 -15c-5 -5 -13 -14 -16 -20c-7 -14 -11 -16 -18 -7
c-13 18 -25 27 -37 31c-19 6 -41 2 -53 -9c-3 -2 -6 -4 -10 -4c-5 1 -5 2 -6 7c-1 7 7 54 10 57c2 2 13 2 46 2h44v11v11h-55c-30 0 -55 -1 -55 -2zM220 224c11 6 28 4 43 -3c13 -6 43 -34 43 -40c0 -2 -6 -10 -14 -17c-25 -25 -53 -33 -74 -22c-31 16 -29 66 2 82zM393 225
c18 7 39 2 50 -12c14 -17 14 -48 -1 -64c-12 -13 -36 -15 -57 -5c-13 6 -33 23 -38 32c-3 7 -3 10 11 24c12 13 25 21 35 25zM225 209c-12 -8 -17 -30 -10 -43c5 -10 16 -15 27 -13c13 2 44 21 44 28c0 3 -19 19 -29 25s-25 7 -32 3zM396 209c-8 -4 -32 -24 -32 -28
s19 -18 29 -23c12 -5 24 -6 31 -1c12 8 17 25 11 40c-6 13 -23 19 -39 12z" />
    <glyph glyph-name="amazon-1" unicode="&#xfb4a;" horiz-adv-x="480" 
d="M209 437c9 2 23 3 41 2c44 -1 70 -11 95 -35c15 -15 24 -32 27 -50c1 -6 2 -46 2 -94v-83l5 -10c3 -6 10 -16 17 -23s12 -14 12 -15c0 -4 -65 -67 -69 -67c-2 0 -12 9 -26 22l-22 22l-7 -7c-10 -11 -31 -24 -48 -30c-20 -7 -55 -9 -74 -4c-35 9 -58 30 -70 62
c-6 16 -7 59 -1 75c7 20 13 31 29 46c13 13 19 18 36 26c24 12 57 20 90 24l22 3v18c0 31 -7 40 -29 40c-8 0 -14 -1 -18 -3c-10 -6 -22 -20 -29 -34c-4 -8 -9 -14 -10 -15s-21 0 -43 2c-48 4 -48 4 -46 21c7 54 51 95 116 107zM211 421c-54 -10 -92 -42 -101 -85
c-2 -7 -1 -8 2 -8c2 0 16 -2 32 -3s29 -2 29 -2s3 5 7 12c17 31 43 45 71 39c9 -2 13 -4 20 -11c5 -5 10 -11 11 -16c3 -12 3 -56 -1 -60c-2 -2 -10 -3 -22 -4c-55 -4 -102 -21 -128 -46c-21 -21 -30 -45 -28 -78c2 -38 20 -63 54 -76c16 -6 56 -5 73 1c18 7 39 20 48 32
c4 5 8 10 10 11s10 -6 27 -23l24 -24l24 24l25 25l-9 10c-5 5 -11 14 -14 20l-6 10l-1 93l-1 93l-6 14c-12 24 -35 42 -64 50c-16 4 -58 5 -76 2zM253 249c15 2 25 1 28 -2s3 -8 2 -36c-1 -35 -4 -47 -15 -63c-12 -16 -40 -23 -59 -15c-11 5 -24 18 -28 28c-5 13 -3 37 4 49
c12 20 36 35 68 39zM251 232c-25 -4 -46 -16 -53 -30c-5 -11 -5 -29 -1 -38c7 -13 26 -21 42 -17c8 2 18 12 23 23c4 9 5 15 5 37c0 29 1 28 -16 25zM401 76c14 5 19 6 36 6c33 0 43 -5 43 -23c0 -22 -12 -52 -27 -69c-10 -11 -16 -14 -23 -10c-6 3 -5 9 3 32
c4 11 7 23 7 27l1 8h-31c-17 0 -33 1 -34 2c-4 3 -2 12 3 17c3 3 13 7 22 10zM4 75c2 2 7 3 9 3s16 -7 30 -15c47 -28 86 -44 127 -54c17 -4 28 -5 59 -6c33 -1 41 -1 64 3c32 5 64 15 99 29c29 12 33 13 39 4c3 -5 3 -6 -1 -14c-3 -6 -9 -13 -19 -21
c-35 -28 -75 -45 -124 -55c-25 -5 -78 -5 -102 0c-61 12 -121 46 -167 93c-14 15 -18 19 -18 24c0 4 1 7 4 9zM434 64c20 -3 26 -10 22 -30c-1 -6 -1 -11 -1 -11c1 -1 7 20 8 30c1 9 1 11 -3 12c-3 1 -12 1 -21 1c-16 0 -16 -1 -5 -2zM41 41c22 -20 58 -44 85 -56
c17 -8 41 -16 60 -20c25 -6 77 -5 104 1c24 5 50 13 67 22c16 8 43 26 49 33l5 5l-14 -6c-22 -10 -58 -21 -86 -27c-24 -5 -30 -6 -72 -6c-40 0 -48 1 -66 5c-40 9 -80 24 -121 47l-23 13l12 -11z" />
    <glyph glyph-name="aim-1" unicode="&#xfb49;" horiz-adv-x="435" 
d="M268 437c15 4 36 3 51 -3c17 -6 37 -27 43 -43c15 -40 -1 -82 -39 -100c-11 -5 -14 -6 -34 -6s-22 1 -33 6c-23 11 -40 34 -44 59c-6 38 19 77 56 87zM270 421c-37 -12 -53 -57 -34 -90c25 -43 88 -41 110 5c4 9 5 14 5 26c0 18 -5 29 -16 42c-15 17 -44 24 -65 17z
M216 296c9 6 12 5 24 -6c35 -32 91 -42 158 -26c18 4 23 4 26 -2c1 -2 4 -18 7 -35c5 -33 6 -37 -2 -41c-12 -7 -73 -14 -115 -14c-13 0 -24 0 -24 -1s7 -8 14 -16c29 -32 59 -78 82 -124c17 -36 20 -41 17 -47s-63 -39 -70 -38c-3 0 -7 4 -11 9c-3 4 -13 18 -22 31
c-20 28 -38 50 -63 75l-19 19l-14 -13c-18 -17 -34 -27 -61 -40c-34 -17 -97 -35 -120 -35c-12 0 -14 3 -19 47l-4 38l5 4c4 3 8 5 19 6c56 5 96 30 121 74c4 7 15 32 24 55c21 52 32 70 47 80zM215 274c-9 -10 -19 -32 -31 -64c-18 -50 -32 -74 -54 -95
c-24 -23 -53 -36 -93 -43l-20 -3l1 -7c3 -27 6 -52 7 -53c2 -2 44 7 68 15c47 15 91 42 112 67c4 5 10 9 12 9c5 0 52 -47 74 -75c10 -12 24 -30 31 -41s14 -20 15 -20c4 0 48 24 49 27c1 1 -4 13 -10 26c-25 52 -59 101 -97 141c-11 12 -21 22 -21 23s1 3 3 5c3 3 7 3 36 2
c44 -1 114 6 120 12c1 1 0 12 -2 26l-3 24l-6 -1c-43 -9 -85 -10 -113 -4c-21 5 -45 17 -58 28c-6 5 -10 9 -11 9s-5 -3 -9 -8z" />
    </font>
</defs>
</svg>
